<svg width="163" height="100" viewBox="0 0 163 100" fill="none" xmlns="http://www.w3.org/2000/svg">
<rect x="0.25" y="0.25" width="162.358" height="99.5" rx="9.75" fill="#F8F8F8" stroke="#D2D2D2" stroke-width="0.5"/>
<path d="M88.252 9.01953C95.7078 9.01953 101.752 15.0637 101.752 22.5195C101.752 29.9754 95.7078 36.0195 88.252 36.0195C80.7961 36.0195 74.752 29.9754 74.752 22.5195C74.752 15.0637 80.7961 9.01953 88.252 9.01953ZM88.252 14.0195C83.5575 14.0195 79.752 17.8251 79.752 22.5195C79.752 27.214 83.5575 31.0195 88.252 31.0195C92.9464 31.0195 96.752 27.214 96.752 22.5195C96.752 17.8251 92.9464 14.0195 88.252 14.0195Z" fill="#D2D2D2"/>
<g filter="url(#filter0_f_2147_323)">
<path d="M74.833 17.0195C74.137 18.7158 73.752 20.5726 73.752 22.5195C73.752 24.4665 74.137 26.3233 74.833 28.0195H18.252C15.2144 28.0195 12.752 25.5571 12.752 22.5195C12.752 19.482 15.2144 17.0195 18.252 17.0195H74.833ZM92.9727 17.0195C94.5203 18.3492 95.502 20.3191 95.502 22.5195C95.502 24.72 94.5203 26.6899 92.9727 28.0195H83.5312C81.9836 26.6899 81.002 24.72 81.002 22.5195C81.002 20.3191 81.9836 18.3492 83.5312 17.0195H92.9727ZM144.252 17.0195C147.29 17.0195 149.752 19.482 149.752 22.5195C149.752 25.5571 147.29 28.0195 144.252 28.0195H101.671C102.367 26.3233 102.752 24.4665 102.752 22.5195C102.752 20.5726 102.367 18.7158 101.671 17.0195H144.252Z" fill="white"/>
</g>
<path d="M74.833 17.0195C74.137 18.7158 73.752 20.5726 73.752 22.5195C73.752 24.4665 74.137 26.3233 74.833 28.0195H18.252C15.2144 28.0195 12.752 25.5571 12.752 22.5195C12.752 19.482 15.2144 17.0195 18.252 17.0195H74.833ZM92.9727 17.0195C94.5203 18.3492 95.502 20.3191 95.502 22.5195C95.502 24.72 94.5203 26.6899 92.9727 28.0195H83.5312C81.9836 26.6899 81.002 24.72 81.002 22.5195C81.002 20.3191 81.9836 18.3492 83.5312 17.0195H92.9727ZM144.252 17.0195C147.29 17.0195 149.752 19.482 149.752 22.5195C149.752 25.5571 147.29 28.0195 144.252 28.0195H101.671C102.367 26.3233 102.752 24.4665 102.752 22.5195C102.752 20.5726 102.367 18.7158 101.671 17.0195H144.252Z" fill="#D2D2D2" fill-opacity="0.5"/>
<path d="M75.252 63.0195C82.7078 63.0195 88.752 69.0637 88.752 76.5195C88.752 83.9754 82.7078 90.0195 75.252 90.0195C67.7961 90.0195 61.752 83.9754 61.752 76.5195C61.752 69.0637 67.7961 63.0195 75.252 63.0195ZM75.252 68.0195C70.5575 68.0195 66.752 71.8251 66.752 76.5195C66.752 81.214 70.5575 85.0195 75.252 85.0195C79.9464 85.0195 83.752 81.214 83.752 76.5195C83.752 71.8251 79.9464 68.0195 75.252 68.0195Z" fill="#D2D2D2"/>
<path d="M61.833 71.0195C61.137 72.7158 60.752 74.5726 60.752 76.5195C60.752 78.4665 61.137 80.3233 61.833 82.0195H18.252C15.2144 82.0195 12.752 79.5571 12.752 76.5195C12.752 73.482 15.2144 71.0195 18.252 71.0195H61.833ZM79.9727 71.0195C81.5203 72.3492 82.502 74.3191 82.502 76.5195C82.502 78.72 81.5203 80.6899 79.9727 82.0195H70.5312C68.9836 80.6899 68.002 78.72 68.002 76.5195C68.002 74.3191 68.9836 72.3492 70.5312 71.0195H79.9727ZM144.252 71.0195C147.29 71.0195 149.752 73.482 149.752 76.5195C149.752 79.5571 147.29 82.0195 144.252 82.0195H88.6709C89.3669 80.3233 89.752 78.4665 89.752 76.5195C89.752 74.5726 89.3669 72.7158 88.6709 71.0195H144.252Z" fill="url(#paint0_linear_2147_323)"/>
<path d="M55.252 63.0195C47.7961 63.0195 41.752 56.9754 41.752 49.5195C41.752 42.0637 47.7961 36.0195 55.252 36.0195C62.7078 36.0195 68.752 42.0637 68.752 49.5195C68.752 56.9754 62.7078 63.0195 55.252 63.0195ZM55.252 58.0195C59.9464 58.0195 63.752 54.214 63.752 49.5195C63.752 44.8251 59.9464 41.0195 55.252 41.0195C50.5575 41.0195 46.752 44.8251 46.752 49.5195C46.752 54.214 50.5575 58.0195 55.252 58.0195Z" fill="#D3D3D3"/>
<g filter="url(#filter1_f_2147_323)">
<path d="M67.6709 55.0195C68.3669 53.3233 68.752 51.4665 68.752 49.5195C68.752 47.5726 68.3669 45.7158 67.6709 44.0195L144.252 44.0195C147.29 44.0195 149.752 46.482 149.752 49.5195C149.752 52.5571 147.29 55.0195 144.252 55.0195L67.6709 55.0195ZM50.5312 55.0195C48.9836 53.6899 48.002 51.72 48.002 49.5195C48.002 47.3191 48.9836 45.3492 50.5312 44.0195L59.9727 44.0195C61.5203 45.3492 62.502 47.3191 62.502 49.5195C62.502 51.72 61.5203 53.6899 59.9727 55.0195L50.5312 55.0195ZM18.252 55.0195C15.2144 55.0195 12.752 52.5571 12.752 49.5195C12.752 46.482 15.2144 44.0195 18.252 44.0195L40.833 44.0195C40.137 45.7158 39.752 47.5726 39.752 49.5195C39.752 51.4665 40.137 53.3233 40.833 55.0195L18.252 55.0195Z" fill="url(#paint1_linear_2147_323)"/>
</g>
<path d="M68.6709 55.0195C69.3669 53.3233 69.752 51.4665 69.752 49.5195C69.752 47.5726 69.3669 45.7158 68.6709 44.0195L144.252 44.0195C147.29 44.0195 149.752 46.482 149.752 49.5195C149.752 52.5571 147.29 55.0195 144.252 55.0195L68.6709 55.0195ZM50.5312 55.0195C48.9836 53.6899 48.002 51.72 48.002 49.5195C48.002 47.3191 48.9836 45.3492 50.5312 44.0195L59.9727 44.0195C61.5203 45.3492 62.502 47.3191 62.502 49.5195C62.502 51.72 61.5203 53.6899 59.9727 55.0195L50.5312 55.0195ZM18.252 55.0195C15.2144 55.0195 12.752 52.5571 12.752 49.5195C12.752 46.482 15.2144 44.0195 18.252 44.0195L41.833 44.0195C41.137 45.7158 40.752 47.5726 40.752 49.5195C40.752 51.4665 41.137 53.3233 41.833 55.0195L18.252 55.0195Z" fill="url(#paint2_linear_2147_323)"/>
<defs>
<filter id="filter0_f_2147_323" x="8.75195" y="13.0195" width="145" height="19" filterUnits="userSpaceOnUse" color-interpolation-filters="sRGB">
<feFlood flood-opacity="0" result="BackgroundImageFix"/>
<feBlend mode="normal" in="SourceGraphic" in2="BackgroundImageFix" result="shape"/>
<feGaussianBlur stdDeviation="2" result="effect1_foregroundBlur_2147_323"/>
</filter>
<filter id="filter1_f_2147_323" x="8.75195" y="40.0195" width="145" height="19" filterUnits="userSpaceOnUse" color-interpolation-filters="sRGB">
<feFlood flood-opacity="0" result="BackgroundImageFix"/>
<feBlend mode="normal" in="SourceGraphic" in2="BackgroundImageFix" result="shape"/>
<feGaussianBlur stdDeviation="2" result="effect1_foregroundBlur_2147_323"/>
</filter>
<linearGradient id="paint0_linear_2147_323" x1="12.752" y1="76.5195" x2="149.752" y2="76.5195" gradientUnits="userSpaceOnUse">
<stop stop-color="#A5FF69"/>
<stop offset="0.403901" stop-color="#D5D5D5" stop-opacity="0.4"/>
<stop offset="0.596213" stop-color="#D2D2D2" stop-opacity="0.4"/>
<stop offset="0.976028" stop-color="#E68AFF"/>
</linearGradient>
<linearGradient id="paint1_linear_2147_323" x1="149.752" y1="49.5195" x2="12.752" y2="49.5195" gradientUnits="userSpaceOnUse">
<stop stop-color="#FFDD00"/>
<stop offset="0.403303" stop-color="white"/>
<stop offset="0.603573" stop-color="white"/>
<stop offset="1" stop-color="#539DFF"/>
</linearGradient>
<linearGradient id="paint2_linear_2147_323" x1="149.752" y1="49.5195" x2="12.752" y2="49.5195" gradientUnits="userSpaceOnUse">
<stop stop-color="#FFDD00"/>
<stop offset="0.403303" stop-color="#D2D2D2" stop-opacity="0.4"/>
<stop offset="0.603573" stop-color="#D2D2D2" stop-opacity="0.4"/>
<stop offset="1" stop-color="#539DFF"/>
</linearGradient>
</defs>
</svg>
