<svg width="163" height="100" viewBox="0 0 163 100" fill="none" xmlns="http://www.w3.org/2000/svg">
<rect x="0.25" y="0.25" width="162.358" height="99.5" rx="9.75" fill="#F8F8F8" stroke="#D2D2D2" stroke-width="0.5"/>
<path d="M100.252 9.02002C107.708 9.02002 113.752 15.0642 113.752 22.52C113.752 29.9759 107.708 36.02 100.252 36.02C92.7961 36.02 86.752 29.9759 86.752 22.52C86.752 15.0642 92.7961 9.02002 100.252 9.02002ZM100.252 14.02C95.5575 14.02 91.752 17.8256 91.752 22.52C91.752 27.2144 95.5575 31.02 100.252 31.02C104.946 31.02 108.752 27.2144 108.752 22.52C108.752 17.8256 104.946 14.02 100.252 14.02Z" fill="#D2D2D2"/>
<g filter="url(#filter0_f_2147_77)">
<path d="M86.833 17.02C86.137 18.7162 85.752 20.573 85.752 22.52C85.752 24.467 86.137 26.3238 86.833 28.02H18.252C15.2144 28.02 12.752 25.5576 12.752 22.52C12.752 19.4825 15.2144 17.02 18.252 17.02H86.833ZM104.973 17.02C106.52 18.3496 107.502 20.3196 107.502 22.52C107.502 24.7205 106.52 26.6904 104.973 28.02H95.5312C93.9836 26.6904 93.002 24.7205 93.002 22.52C93.002 20.3196 93.9836 18.3496 95.5312 17.02H104.973ZM144.252 17.02C147.29 17.02 149.752 19.4825 149.752 22.52C149.752 25.5576 147.29 28.02 144.252 28.02H113.671C114.367 26.3238 114.752 24.467 114.752 22.52C114.752 20.573 114.367 18.7162 113.671 17.02H144.252Z" fill="white"/>
</g>
<path d="M86.833 17.02C86.137 18.7162 85.752 20.573 85.752 22.52C85.752 24.467 86.137 26.3238 86.833 28.02H18.252C15.2144 28.02 12.752 25.5576 12.752 22.52C12.752 19.4825 15.2144 17.02 18.252 17.02H86.833ZM104.973 17.02C106.52 18.3496 107.502 20.3196 107.502 22.52C107.502 24.7205 106.52 26.6904 104.973 28.02H95.5312C93.9836 26.6904 93.002 24.7205 93.002 22.52C93.002 20.3196 93.9836 18.3496 95.5312 17.02H104.973ZM144.252 17.02C147.29 17.02 149.752 19.4825 149.752 22.52C149.752 25.5576 147.29 28.02 144.252 28.02H113.671C114.367 26.3238 114.752 24.467 114.752 22.52C114.752 20.573 114.367 18.7162 113.671 17.02H144.252Z" fill="#D2D2D2" fill-opacity="0.5"/>
<path d="M87.252 63.02C94.7078 63.02 100.752 69.0642 100.752 76.52C100.752 83.9759 94.7078 90.02 87.252 90.02C79.7961 90.02 73.752 83.9759 73.752 76.52C73.752 69.0642 79.7961 63.02 87.252 63.02ZM87.252 68.02C82.5575 68.02 78.752 71.8256 78.752 76.52C78.752 81.2144 82.5575 85.02 87.252 85.02C91.9464 85.02 95.752 81.2144 95.752 76.52C95.752 71.8256 91.9464 68.02 87.252 68.02Z" fill="#D2D2D2"/>
<path d="M73.833 71.02C73.137 72.7162 72.752 74.573 72.752 76.52C72.752 78.467 73.137 80.3238 73.833 82.02H18.252C15.2144 82.02 12.752 79.5576 12.752 76.52C12.752 73.4825 15.2144 71.02 18.252 71.02H73.833ZM91.9727 71.02C93.5203 72.3496 94.502 74.3196 94.502 76.52C94.502 78.7205 93.5203 80.6904 91.9727 82.02H82.5312C80.9836 80.6904 80.002 78.7205 80.002 76.52C80.002 74.3196 80.9836 72.3496 82.5312 71.02H91.9727ZM144.252 71.02C147.29 71.02 149.752 73.4825 149.752 76.52C149.752 79.5576 147.29 82.02 144.252 82.02H100.671C101.367 80.3238 101.752 78.467 101.752 76.52C101.752 74.573 101.367 72.7162 100.671 71.02H144.252Z" fill="url(#paint0_linear_2147_77)"/>
<path d="M43.252 63.02C35.7961 63.02 29.752 56.9759 29.752 49.52C29.752 42.0642 35.7961 36.02 43.252 36.02C50.7078 36.02 56.752 42.0642 56.752 49.52C56.752 56.9759 50.7078 63.02 43.252 63.02ZM43.252 58.02C47.9464 58.02 51.752 54.2144 51.752 49.52C51.752 44.8256 47.9464 41.02 43.252 41.02C38.5575 41.02 34.752 44.8256 34.752 49.52C34.752 54.2144 38.5575 58.02 43.252 58.02Z" fill="#D3D3D3"/>
<g filter="url(#filter1_f_2147_77)">
<path d="M55.6709 55.02C56.3669 53.3238 56.752 51.467 56.752 49.52C56.752 47.5731 56.3669 45.7162 55.6709 44.02L144.252 44.02C147.29 44.02 149.752 46.4825 149.752 49.52C149.752 52.5576 147.29 55.02 144.252 55.02L55.6709 55.02ZM38.5312 55.02C36.9836 53.6904 36.002 51.7205 36.002 49.52C36.002 47.3196 36.9836 45.3497 38.5312 44.02L47.9727 44.02C49.5203 45.3497 50.502 47.3196 50.502 49.52C50.502 51.7205 49.5203 53.6904 47.9727 55.02L38.5312 55.02ZM18.252 55.02C15.2144 55.02 12.752 52.5576 12.752 49.52C12.752 46.4825 15.2144 44.02 18.252 44.02L28.833 44.02C28.137 45.7163 27.752 47.5731 27.752 49.52C27.752 51.467 28.137 53.3238 28.833 55.02L18.252 55.02Z" fill="url(#paint1_linear_2147_77)"/>
</g>
<path d="M56.6709 55.02C57.3669 53.3238 57.752 51.467 57.752 49.52C57.752 47.573 57.3669 45.7162 56.6709 44.02L144.252 44.02C147.29 44.02 149.752 46.4825 149.752 49.52C149.752 52.5576 147.29 55.02 144.252 55.02L56.6709 55.02ZM38.5312 55.02C36.9836 53.6904 36.002 51.7205 36.002 49.52C36.002 47.3196 36.9836 45.3497 38.5312 44.02L47.9727 44.02C49.5203 45.3497 50.502 47.3196 50.502 49.52C50.502 51.7205 49.5203 53.6904 47.9727 55.02L38.5312 55.02ZM18.252 55.02C15.2144 55.02 12.752 52.5576 12.752 49.52C12.752 46.4825 15.2144 44.02 18.252 44.02L29.833 44.02C29.137 45.7163 28.752 47.5731 28.752 49.52C28.752 51.467 29.137 53.3238 29.833 55.02L18.252 55.02Z" fill="url(#paint2_linear_2147_77)"/>
<defs>
<filter id="filter0_f_2147_77" x="8.75195" y="13.02" width="145" height="19" filterUnits="userSpaceOnUse" color-interpolation-filters="sRGB">
<feFlood flood-opacity="0" result="BackgroundImageFix"/>
<feBlend mode="normal" in="SourceGraphic" in2="BackgroundImageFix" result="shape"/>
<feGaussianBlur stdDeviation="2" result="effect1_foregroundBlur_2147_77"/>
</filter>
<filter id="filter1_f_2147_77" x="8.75195" y="40.02" width="145" height="19" filterUnits="userSpaceOnUse" color-interpolation-filters="sRGB">
<feFlood flood-opacity="0" result="BackgroundImageFix"/>
<feBlend mode="normal" in="SourceGraphic" in2="BackgroundImageFix" result="shape"/>
<feGaussianBlur stdDeviation="2" result="effect1_foregroundBlur_2147_77"/>
</filter>
<linearGradient id="paint0_linear_2147_77" x1="12.752" y1="76.52" x2="149.752" y2="76.52" gradientUnits="userSpaceOnUse">
<stop stop-color="#A5FF69"/>
<stop offset="0.403901" stop-color="#D5D5D5" stop-opacity="0.4"/>
<stop offset="0.596213" stop-color="#D2D2D2" stop-opacity="0.4"/>
<stop offset="0.976028" stop-color="#E68AFF"/>
</linearGradient>
<linearGradient id="paint1_linear_2147_77" x1="149.752" y1="49.52" x2="12.752" y2="49.52" gradientUnits="userSpaceOnUse">
<stop stop-color="#FFDD00"/>
<stop offset="0.403303" stop-color="white"/>
<stop offset="0.603573" stop-color="white"/>
<stop offset="1" stop-color="#539DFF"/>
</linearGradient>
<linearGradient id="paint2_linear_2147_77" x1="149.752" y1="49.52" x2="12.752" y2="49.52" gradientUnits="userSpaceOnUse">
<stop stop-color="#FFDD00"/>
<stop offset="0.403303" stop-color="#D2D2D2" stop-opacity="0.4"/>
<stop offset="0.603573" stop-color="#D2D2D2" stop-opacity="0.4"/>
<stop offset="1" stop-color="#539DFF"/>
</linearGradient>
</defs>
</svg>
