<svg width="163" height="100" viewBox="0 0 163 100" fill="none" xmlns="http://www.w3.org/2000/svg">
<rect x="0.25" y="0.25" width="162.358" height="99.5" rx="9.75" fill="#F8F8F8" stroke="#D2D2D2" stroke-width="0.5"/>
<path d="M98.252 9.02002C105.708 9.02002 111.752 15.0642 111.752 22.52C111.752 29.9759 105.708 36.02 98.252 36.02C90.7961 36.02 84.752 29.9759 84.752 22.52C84.752 15.0642 90.7961 9.02002 98.252 9.02002ZM98.252 14.02C93.5575 14.02 89.752 17.8256 89.752 22.52C89.752 27.2144 93.5575 31.02 98.252 31.02C102.946 31.02 106.752 27.2144 106.752 22.52C106.752 17.8256 102.946 14.02 98.252 14.02Z" fill="#D2D2D2"/>
<g filter="url(#filter0_f_2147_118)">
<path d="M84.833 17.02C84.137 18.7162 83.752 20.573 83.752 22.52C83.752 24.467 84.137 26.3238 84.833 28.02H18.252C15.2144 28.02 12.752 25.5576 12.752 22.52C12.752 19.4825 15.2144 17.02 18.252 17.02H84.833ZM102.973 17.02C104.52 18.3496 105.502 20.3196 105.502 22.52C105.502 24.7205 104.52 26.6904 102.973 28.02H93.5312C91.9836 26.6904 91.002 24.7205 91.002 22.52C91.002 20.3196 91.9836 18.3496 93.5312 17.02H102.973ZM144.252 17.02C147.29 17.02 149.752 19.4825 149.752 22.52C149.752 25.5576 147.29 28.02 144.252 28.02H111.671C112.367 26.3238 112.752 24.467 112.752 22.52C112.752 20.573 112.367 18.7162 111.671 17.02H144.252Z" fill="white"/>
</g>
<path d="M84.833 17.02C84.137 18.7162 83.752 20.573 83.752 22.52C83.752 24.467 84.137 26.3238 84.833 28.02H18.252C15.2144 28.02 12.752 25.5576 12.752 22.52C12.752 19.4825 15.2144 17.02 18.252 17.02H84.833ZM102.973 17.02C104.52 18.3496 105.502 20.3196 105.502 22.52C105.502 24.7205 104.52 26.6904 102.973 28.02H93.5312C91.9836 26.6904 91.002 24.7205 91.002 22.52C91.002 20.3196 91.9836 18.3496 93.5312 17.02H102.973ZM144.252 17.02C147.29 17.02 149.752 19.4825 149.752 22.52C149.752 25.5576 147.29 28.02 144.252 28.02H111.671C112.367 26.3238 112.752 24.467 112.752 22.52C112.752 20.573 112.367 18.7162 111.671 17.02H144.252Z" fill="#D2D2D2" fill-opacity="0.5"/>
<path d="M85.252 63.02C92.7078 63.02 98.752 69.0642 98.752 76.52C98.752 83.9759 92.7078 90.02 85.252 90.02C77.7961 90.02 71.752 83.9759 71.752 76.52C71.752 69.0642 77.7961 63.02 85.252 63.02ZM85.252 68.02C80.5575 68.02 76.752 71.8256 76.752 76.52C76.752 81.2144 80.5575 85.02 85.252 85.02C89.9464 85.02 93.752 81.2144 93.752 76.52C93.752 71.8256 89.9464 68.02 85.252 68.02Z" fill="#D2D2D2"/>
<path d="M71.833 71.02C71.137 72.7162 70.752 74.573 70.752 76.52C70.752 78.467 71.137 80.3238 71.833 82.02H18.252C15.2144 82.02 12.752 79.5576 12.752 76.52C12.752 73.4825 15.2144 71.02 18.252 71.02H71.833ZM89.9727 71.02C91.5203 72.3496 92.502 74.3196 92.502 76.52C92.502 78.7205 91.5203 80.6904 89.9727 82.02H80.5312C78.9836 80.6904 78.002 78.7205 78.002 76.52C78.002 74.3196 78.9836 72.3496 80.5312 71.02H89.9727ZM144.252 71.02C147.29 71.02 149.752 73.4825 149.752 76.52C149.752 79.5576 147.29 82.02 144.252 82.02H98.6709C99.3669 80.3238 99.752 78.467 99.752 76.52C99.752 74.573 99.3669 72.7162 98.6709 71.02H144.252Z" fill="url(#paint0_linear_2147_118)"/>
<path d="M45.252 63.02C37.7961 63.02 31.752 56.9759 31.752 49.52C31.752 42.0642 37.7961 36.02 45.252 36.02C52.7078 36.02 58.752 42.0642 58.752 49.52C58.752 56.9759 52.7078 63.02 45.252 63.02ZM45.252 58.02C49.9464 58.02 53.752 54.2144 53.752 49.52C53.752 44.8256 49.9464 41.02 45.252 41.02C40.5575 41.02 36.752 44.8256 36.752 49.52C36.752 54.2144 40.5575 58.02 45.252 58.02Z" fill="#D3D3D3"/>
<g filter="url(#filter1_f_2147_118)">
<path d="M57.6709 55.02C58.3669 53.3238 58.752 51.467 58.752 49.52C58.752 47.573 58.3669 45.7162 57.6709 44.02L144.252 44.02C147.29 44.02 149.752 46.4825 149.752 49.52C149.752 52.5576 147.29 55.02 144.252 55.02L57.6709 55.02ZM40.5312 55.02C38.9836 53.6904 38.002 51.7205 38.002 49.52C38.002 47.3196 38.9836 45.3497 40.5312 44.02L49.9727 44.02C51.5203 45.3497 52.502 47.3196 52.502 49.52C52.502 51.7205 51.5203 53.6904 49.9727 55.02L40.5312 55.02ZM18.252 55.02C15.2144 55.02 12.752 52.5576 12.752 49.52C12.752 46.4825 15.2144 44.02 18.252 44.02L30.833 44.02C30.137 45.7163 29.752 47.5731 29.752 49.52C29.752 51.467 30.137 53.3238 30.833 55.02L18.252 55.02Z" fill="url(#paint1_linear_2147_118)"/>
</g>
<path d="M58.6709 55.02C59.3669 53.3238 59.752 51.467 59.752 49.52C59.752 47.573 59.3669 45.7162 58.6709 44.02L144.252 44.02C147.29 44.02 149.752 46.4825 149.752 49.52C149.752 52.5576 147.29 55.02 144.252 55.02L58.6709 55.02ZM40.5312 55.02C38.9836 53.6904 38.002 51.7205 38.002 49.52C38.002 47.3196 38.9836 45.3497 40.5312 44.02L49.9727 44.02C51.5203 45.3497 52.502 47.3196 52.502 49.52C52.502 51.7205 51.5203 53.6904 49.9727 55.02L40.5312 55.02ZM18.252 55.02C15.2144 55.02 12.752 52.5576 12.752 49.52C12.752 46.4825 15.2144 44.02 18.252 44.02L31.833 44.02C31.137 45.7163 30.752 47.5731 30.752 49.52C30.752 51.467 31.137 53.3238 31.833 55.02L18.252 55.02Z" fill="url(#paint2_linear_2147_118)"/>
<defs>
<filter id="filter0_f_2147_118" x="8.75195" y="13.02" width="145" height="19" filterUnits="userSpaceOnUse" color-interpolation-filters="sRGB">
<feFlood flood-opacity="0" result="BackgroundImageFix"/>
<feBlend mode="normal" in="SourceGraphic" in2="BackgroundImageFix" result="shape"/>
<feGaussianBlur stdDeviation="2" result="effect1_foregroundBlur_2147_118"/>
</filter>
<filter id="filter1_f_2147_118" x="8.75195" y="40.02" width="145" height="19" filterUnits="userSpaceOnUse" color-interpolation-filters="sRGB">
<feFlood flood-opacity="0" result="BackgroundImageFix"/>
<feBlend mode="normal" in="SourceGraphic" in2="BackgroundImageFix" result="shape"/>
<feGaussianBlur stdDeviation="2" result="effect1_foregroundBlur_2147_118"/>
</filter>
<linearGradient id="paint0_linear_2147_118" x1="12.752" y1="76.52" x2="149.752" y2="76.52" gradientUnits="userSpaceOnUse">
<stop stop-color="#A5FF69"/>
<stop offset="0.403901" stop-color="#D5D5D5" stop-opacity="0.4"/>
<stop offset="0.596213" stop-color="#D2D2D2" stop-opacity="0.4"/>
<stop offset="0.976028" stop-color="#E68AFF"/>
</linearGradient>
<linearGradient id="paint1_linear_2147_118" x1="149.752" y1="49.52" x2="12.752" y2="49.52" gradientUnits="userSpaceOnUse">
<stop stop-color="#FFDD00"/>
<stop offset="0.403303" stop-color="white"/>
<stop offset="0.603573" stop-color="white"/>
<stop offset="1" stop-color="#539DFF"/>
</linearGradient>
<linearGradient id="paint2_linear_2147_118" x1="149.752" y1="49.52" x2="12.752" y2="49.52" gradientUnits="userSpaceOnUse">
<stop stop-color="#FFDD00"/>
<stop offset="0.403303" stop-color="#D2D2D2" stop-opacity="0.4"/>
<stop offset="0.603573" stop-color="#D2D2D2" stop-opacity="0.4"/>
<stop offset="1" stop-color="#539DFF"/>
</linearGradient>
</defs>
</svg>
