<svg width="163" height="100" viewBox="0 0 163 100" fill="none" xmlns="http://www.w3.org/2000/svg">
<rect x="0.25" y="0.25" width="162.358" height="99.5" rx="9.75" fill="#F8F8F8" stroke="#D2D2D2" stroke-width="0.5"/>
<path d="M92.252 9.02002C99.7078 9.02002 105.752 15.0642 105.752 22.52C105.752 29.9759 99.7078 36.02 92.252 36.02C84.7961 36.02 78.752 29.9759 78.752 22.52C78.752 15.0642 84.7961 9.02002 92.252 9.02002ZM92.252 14.02C87.5575 14.02 83.752 17.8256 83.752 22.52C83.752 27.2144 87.5575 31.02 92.252 31.02C96.9464 31.02 100.752 27.2144 100.752 22.52C100.752 17.8256 96.9464 14.02 92.252 14.02Z" fill="#D2D2D2"/>
<g filter="url(#filter0_f_2147_241)">
<path d="M78.833 17.02C78.137 18.7162 77.752 20.573 77.752 22.52C77.752 24.467 78.137 26.3238 78.833 28.02H18.252C15.2144 28.02 12.752 25.5576 12.752 22.52C12.752 19.4825 15.2144 17.02 18.252 17.02H78.833ZM96.9727 17.02C98.5203 18.3496 99.502 20.3196 99.502 22.52C99.502 24.7205 98.5203 26.6904 96.9727 28.02H87.5312C85.9836 26.6904 85.002 24.7205 85.002 22.52C85.002 20.3196 85.9836 18.3496 87.5312 17.02H96.9727ZM144.252 17.02C147.29 17.02 149.752 19.4825 149.752 22.52C149.752 25.5576 147.29 28.02 144.252 28.02H105.671C106.367 26.3238 106.752 24.467 106.752 22.52C106.752 20.573 106.367 18.7162 105.671 17.02H144.252Z" fill="white"/>
</g>
<path d="M78.833 17.02C78.137 18.7162 77.752 20.573 77.752 22.52C77.752 24.467 78.137 26.3238 78.833 28.02H18.252C15.2144 28.02 12.752 25.5576 12.752 22.52C12.752 19.4825 15.2144 17.02 18.252 17.02H78.833ZM96.9727 17.02C98.5203 18.3496 99.502 20.3196 99.502 22.52C99.502 24.7205 98.5203 26.6904 96.9727 28.02H87.5312C85.9836 26.6904 85.002 24.7205 85.002 22.52C85.002 20.3196 85.9836 18.3496 87.5312 17.02H96.9727ZM144.252 17.02C147.29 17.02 149.752 19.4825 149.752 22.52C149.752 25.5576 147.29 28.02 144.252 28.02H105.671C106.367 26.3238 106.752 24.467 106.752 22.52C106.752 20.573 106.367 18.7162 105.671 17.02H144.252Z" fill="#D2D2D2" fill-opacity="0.5"/>
<path d="M79.252 63.0195C86.7078 63.0195 92.752 69.0637 92.752 76.5195C92.752 83.9754 86.7078 90.0195 79.252 90.0195C71.7961 90.0195 65.752 83.9754 65.752 76.5195C65.752 69.0637 71.7961 63.0195 79.252 63.0195ZM79.252 68.0195C74.5575 68.0195 70.752 71.8251 70.752 76.5195C70.752 81.214 74.5575 85.0195 79.252 85.0195C83.9464 85.0195 87.752 81.214 87.752 76.5195C87.752 71.8251 83.9464 68.0195 79.252 68.0195Z" fill="#D2D2D2"/>
<path d="M65.833 71.0195C65.137 72.7158 64.752 74.5726 64.752 76.5195C64.752 78.4665 65.137 80.3233 65.833 82.0195H18.252C15.2144 82.0195 12.752 79.5571 12.752 76.5195C12.752 73.482 15.2144 71.0195 18.252 71.0195H65.833ZM83.9727 71.0195C85.5203 72.3492 86.502 74.3191 86.502 76.5195C86.502 78.72 85.5203 80.6899 83.9727 82.0195H74.5312C72.9836 80.6899 72.002 78.72 72.002 76.5195C72.002 74.3191 72.9836 72.3492 74.5312 71.0195H83.9727ZM144.252 71.0195C147.29 71.0195 149.752 73.482 149.752 76.5195C149.752 79.5571 147.29 82.0195 144.252 82.0195H92.6709C93.3669 80.3233 93.752 78.4665 93.752 76.5195C93.752 74.5726 93.3669 72.7158 92.6709 71.0195H144.252Z" fill="url(#paint0_linear_2147_241)"/>
<path d="M51.252 63.0195C43.7961 63.0195 37.752 56.9754 37.752 49.5195C37.752 42.0637 43.7961 36.0195 51.252 36.0195C58.7078 36.0195 64.752 42.0637 64.752 49.5195C64.752 56.9754 58.7078 63.0195 51.252 63.0195ZM51.252 58.0195C55.9464 58.0195 59.752 54.214 59.752 49.5195C59.752 44.8251 55.9464 41.0195 51.252 41.0195C46.5575 41.0195 42.752 44.8251 42.752 49.5195C42.752 54.214 46.5575 58.0195 51.252 58.0195Z" fill="#D3D3D3"/>
<g filter="url(#filter1_f_2147_241)">
<path d="M63.6719 55.02C64.3676 53.324 64.752 51.4667 64.752 49.52C64.7519 47.5731 64.3669 45.7162 63.6709 44.02L144.252 44.02C147.29 44.02 149.752 46.4825 149.752 49.52C149.752 52.5576 147.29 55.02 144.252 55.02L63.6719 55.02ZM46.5312 55.02C44.9837 53.6904 44.002 51.7204 44.002 49.52C44.0021 47.3194 44.9842 45.3496 46.5322 44.02L55.9717 44.02C57.5197 45.3496 58.5018 47.3194 58.502 49.52C58.502 51.7204 57.5202 53.6904 55.9727 55.02L46.5312 55.02ZM18.252 55.02C15.2144 55.02 12.752 52.5576 12.752 49.52C12.752 46.4825 15.2144 44.02 18.252 44.02L36.833 44.02C36.137 45.7162 35.752 47.5731 35.752 49.52C35.752 51.4667 36.1363 53.324 36.832 55.02L18.252 55.02Z" fill="url(#paint1_linear_2147_241)"/>
</g>
<path d="M64.6719 55.02C65.3676 53.324 65.752 51.4667 65.752 49.52C65.7519 47.5731 65.3669 45.7162 64.6709 44.02L144.252 44.02C147.29 44.02 149.752 46.4825 149.752 49.52C149.752 52.5576 147.29 55.02 144.252 55.02L64.6719 55.02ZM46.5312 55.02C44.9837 53.6904 44.002 51.7204 44.002 49.52C44.0021 47.3194 44.9842 45.3496 46.5322 44.02L55.9717 44.02C57.5197 45.3496 58.5018 47.3194 58.502 49.52C58.502 51.7204 57.5202 53.6904 55.9727 55.02L46.5312 55.02ZM18.252 55.02C15.2144 55.02 12.752 52.5576 12.752 49.52C12.752 46.4825 15.2144 44.02 18.252 44.02L37.833 44.02C37.137 45.7162 36.752 47.5731 36.752 49.52C36.752 51.4667 37.1363 53.324 37.832 55.02L18.252 55.02Z" fill="url(#paint2_linear_2147_241)"/>
<defs>
<filter id="filter0_f_2147_241" x="8.75195" y="13.02" width="145" height="19" filterUnits="userSpaceOnUse" color-interpolation-filters="sRGB">
<feFlood flood-opacity="0" result="BackgroundImageFix"/>
<feBlend mode="normal" in="SourceGraphic" in2="BackgroundImageFix" result="shape"/>
<feGaussianBlur stdDeviation="2" result="effect1_foregroundBlur_2147_241"/>
</filter>
<filter id="filter1_f_2147_241" x="8.75195" y="40.02" width="145" height="19" filterUnits="userSpaceOnUse" color-interpolation-filters="sRGB">
<feFlood flood-opacity="0" result="BackgroundImageFix"/>
<feBlend mode="normal" in="SourceGraphic" in2="BackgroundImageFix" result="shape"/>
<feGaussianBlur stdDeviation="2" result="effect1_foregroundBlur_2147_241"/>
</filter>
<linearGradient id="paint0_linear_2147_241" x1="12.752" y1="76.5195" x2="149.752" y2="76.5195" gradientUnits="userSpaceOnUse">
<stop stop-color="#A5FF69"/>
<stop offset="0.403901" stop-color="#D5D5D5" stop-opacity="0.4"/>
<stop offset="0.596213" stop-color="#D2D2D2" stop-opacity="0.4"/>
<stop offset="0.976028" stop-color="#E68AFF"/>
</linearGradient>
<linearGradient id="paint1_linear_2147_241" x1="149.752" y1="49.52" x2="12.752" y2="49.52" gradientUnits="userSpaceOnUse">
<stop stop-color="#FFDD00"/>
<stop offset="0.403303" stop-color="white"/>
<stop offset="0.603573" stop-color="white"/>
<stop offset="1" stop-color="#539DFF"/>
</linearGradient>
<linearGradient id="paint2_linear_2147_241" x1="149.752" y1="49.52" x2="12.752" y2="49.52" gradientUnits="userSpaceOnUse">
<stop stop-color="#FFDD00"/>
<stop offset="0.403303" stop-color="#D2D2D2" stop-opacity="0.4"/>
<stop offset="0.603573" stop-color="#D2D2D2" stop-opacity="0.4"/>
<stop offset="1" stop-color="#539DFF"/>
</linearGradient>
</defs>
</svg>
