<svg width="163" height="100" viewBox="0 0 163 100" fill="none" xmlns="http://www.w3.org/2000/svg">
<rect x="0.25" y="0.25" width="162.358" height="99.5" rx="9.75" fill="#F8F8F8" stroke="#D2D2D2" stroke-width="0.5"/>
<path d="M66.252 9.01953C73.7078 9.01953 79.752 15.0637 79.752 22.5195C79.752 29.9754 73.7078 36.0195 66.252 36.0195C58.7961 36.0195 52.752 29.9754 52.752 22.5195C52.752 15.0637 58.7961 9.01953 66.252 9.01953ZM66.252 14.0195C61.5575 14.0195 57.752 17.8251 57.752 22.5195C57.752 27.214 61.5575 31.0195 66.252 31.0195C70.9464 31.0195 74.752 27.214 74.752 22.5195C74.752 17.8251 70.9464 14.0195 66.252 14.0195Z" fill="#D2D2D2"/>
<g filter="url(#filter0_f_2147_774)">
<path d="M52.833 17.0195C52.137 18.7158 51.752 20.5726 51.752 22.5195C51.752 24.4665 52.137 26.3233 52.833 28.0195H18.252C15.2144 28.0195 12.752 25.5571 12.752 22.5195C12.752 19.482 15.2144 17.0195 18.252 17.0195H52.833ZM70.9727 17.0195C72.5203 18.3492 73.502 20.3191 73.502 22.5195C73.502 24.72 72.5203 26.6899 70.9727 28.0195H61.5312C59.9836 26.6899 59.002 24.72 59.002 22.5195C59.002 20.3191 59.9836 18.3492 61.5312 17.0195H70.9727ZM144.252 17.0195C147.29 17.0195 149.752 19.482 149.752 22.5195C149.752 25.5571 147.29 28.0195 144.252 28.0195H79.6709C80.3669 26.3233 80.752 24.4665 80.752 22.5195C80.752 20.5726 80.3669 18.7158 79.6709 17.0195H144.252Z" fill="white"/>
</g>
<path d="M52.833 17.0195C52.137 18.7158 51.752 20.5726 51.752 22.5195C51.752 24.4665 52.137 26.3233 52.833 28.0195H18.252C15.2144 28.0195 12.752 25.5571 12.752 22.5195C12.752 19.482 15.2144 17.0195 18.252 17.0195H52.833ZM70.9727 17.0195C72.5203 18.3492 73.502 20.3191 73.502 22.5195C73.502 24.72 72.5203 26.6899 70.9727 28.0195H61.5312C59.9836 26.6899 59.002 24.72 59.002 22.5195C59.002 20.3191 59.9836 18.3492 61.5312 17.0195H70.9727ZM144.252 17.0195C147.29 17.0195 149.752 19.482 149.752 22.5195C149.752 25.5571 147.29 28.0195 144.252 28.0195H79.6709C80.3669 26.3233 80.752 24.4665 80.752 22.5195C80.752 20.5726 80.3669 18.7158 79.6709 17.0195H144.252Z" fill="#D2D2D2" fill-opacity="0.5"/>
<path d="M73.252 63.0195C80.7078 63.0195 86.752 69.0637 86.752 76.5195C86.752 83.9754 80.7078 90.0195 73.252 90.0195C65.7961 90.0195 59.752 83.9754 59.752 76.5195C59.752 69.0637 65.7961 63.0195 73.252 63.0195ZM73.252 68.0195C68.5575 68.0195 64.752 71.8251 64.752 76.5195C64.752 81.214 68.5575 85.0195 73.252 85.0195C77.9464 85.0195 81.752 81.214 81.752 76.5195C81.752 71.8251 77.9464 68.0195 73.252 68.0195Z" fill="#D2D2D2"/>
<path d="M59.833 71.0195C59.137 72.7158 58.752 74.5726 58.752 76.5195C58.752 78.4665 59.137 80.3233 59.833 82.0195H18.252C15.2144 82.0195 12.752 79.5571 12.752 76.5195C12.752 73.482 15.2144 71.0195 18.252 71.0195H59.833ZM77.9727 71.0195C79.5203 72.3492 80.502 74.3191 80.502 76.5195C80.502 78.72 79.5203 80.6899 77.9727 82.0195H68.5312C66.9836 80.6899 66.002 78.72 66.002 76.5195C66.002 74.3191 66.9836 72.3492 68.5312 71.0195H77.9727ZM144.252 71.0195C147.29 71.0195 149.752 73.482 149.752 76.5195C149.752 79.5571 147.29 82.0195 144.252 82.0195H86.6709C87.3669 80.3233 87.752 78.4665 87.752 76.5195C87.752 74.5726 87.3669 72.7158 86.6709 71.0195H144.252Z" fill="url(#paint0_linear_2147_774)"/>
<path d="M74.252 63.0195C66.7961 63.0195 60.752 56.9754 60.752 49.5195C60.752 42.0637 66.7961 36.0195 74.252 36.0195C81.7078 36.0195 87.752 42.0637 87.752 49.5195C87.752 56.9754 81.7078 63.0195 74.252 63.0195ZM74.252 58.0195C78.9464 58.0195 82.752 54.214 82.752 49.5195C82.752 44.8251 78.9464 41.0195 74.252 41.0195C69.5575 41.0195 65.752 44.8251 65.752 49.5195C65.752 54.214 69.5575 58.0195 74.252 58.0195Z" fill="#D3D3D3"/>
<g filter="url(#filter1_f_2147_774)">
<path d="M86.6709 55.0195C87.3669 53.3233 87.752 51.4665 87.752 49.5195C87.752 47.5726 87.3669 45.7158 86.6709 44.0195L144.252 44.0195C147.29 44.0195 149.752 46.482 149.752 49.5195C149.752 52.5571 147.29 55.0195 144.252 55.0195L86.6709 55.0195ZM69.5312 55.0195C67.9836 53.6899 67.002 51.72 67.002 49.5195C67.002 47.3191 67.9836 45.3492 69.5312 44.0195L78.9727 44.0195C80.5203 45.3492 81.502 47.3191 81.502 49.5195C81.502 51.72 80.5203 53.6899 78.9727 55.0195L69.5312 55.0195ZM18.252 55.0195C15.2144 55.0195 12.752 52.5571 12.752 49.5195C12.752 46.482 15.2144 44.0195 18.252 44.0195L59.833 44.0195C59.137 45.7158 58.752 47.5726 58.752 49.5195C58.752 51.4665 59.137 53.3233 59.833 55.0195L18.252 55.0195Z" fill="url(#paint1_linear_2147_774)"/>
</g>
<path d="M87.6709 55.0195C88.3669 53.3233 88.752 51.4665 88.752 49.5195C88.752 47.5726 88.3669 45.7158 87.6709 44.0195L144.252 44.0195C147.29 44.0195 149.752 46.482 149.752 49.5195C149.752 52.5571 147.29 55.0195 144.252 55.0195L87.6709 55.0195ZM69.5312 55.0195C67.9836 53.6899 67.002 51.72 67.002 49.5195C67.002 47.3191 67.9836 45.3492 69.5312 44.0195L78.9727 44.0195C80.5203 45.3492 81.502 47.3191 81.502 49.5195C81.502 51.72 80.5203 53.6899 78.9727 55.0195L69.5312 55.0195ZM18.252 55.0195C15.2144 55.0195 12.752 52.5571 12.752 49.5195C12.752 46.482 15.2144 44.0195 18.252 44.0195L60.833 44.0195C60.137 45.7158 59.752 47.5726 59.752 49.5195C59.752 51.4665 60.137 53.3233 60.833 55.0195L18.252 55.0195Z" fill="url(#paint2_linear_2147_774)"/>
<defs>
<filter id="filter0_f_2147_774" x="8.75195" y="13.0195" width="145" height="19" filterUnits="userSpaceOnUse" color-interpolation-filters="sRGB">
<feFlood flood-opacity="0" result="BackgroundImageFix"/>
<feBlend mode="normal" in="SourceGraphic" in2="BackgroundImageFix" result="shape"/>
<feGaussianBlur stdDeviation="2" result="effect1_foregroundBlur_2147_774"/>
</filter>
<filter id="filter1_f_2147_774" x="8.75195" y="40.0195" width="145" height="19" filterUnits="userSpaceOnUse" color-interpolation-filters="sRGB">
<feFlood flood-opacity="0" result="BackgroundImageFix"/>
<feBlend mode="normal" in="SourceGraphic" in2="BackgroundImageFix" result="shape"/>
<feGaussianBlur stdDeviation="2" result="effect1_foregroundBlur_2147_774"/>
</filter>
<linearGradient id="paint0_linear_2147_774" x1="12.752" y1="76.5195" x2="149.752" y2="76.5195" gradientUnits="userSpaceOnUse">
<stop stop-color="#A5FF69"/>
<stop offset="0.403901" stop-color="#D5D5D5" stop-opacity="0.4"/>
<stop offset="0.596213" stop-color="#D2D2D2" stop-opacity="0.4"/>
<stop offset="0.976028" stop-color="#E68AFF"/>
</linearGradient>
<linearGradient id="paint1_linear_2147_774" x1="149.752" y1="49.5195" x2="12.752" y2="49.5195" gradientUnits="userSpaceOnUse">
<stop stop-color="#FFDD00"/>
<stop offset="0.403303" stop-color="white"/>
<stop offset="0.603573" stop-color="white"/>
<stop offset="1" stop-color="#539DFF"/>
</linearGradient>
<linearGradient id="paint2_linear_2147_774" x1="149.752" y1="49.5195" x2="12.752" y2="49.5195" gradientUnits="userSpaceOnUse">
<stop stop-color="#FFDD00"/>
<stop offset="0.403303" stop-color="#D2D2D2" stop-opacity="0.4"/>
<stop offset="0.603573" stop-color="#D2D2D2" stop-opacity="0.4"/>
<stop offset="1" stop-color="#539DFF"/>
</linearGradient>
</defs>
</svg>
