<svg width="163" height="100" viewBox="0 0 163 100" fill="none" xmlns="http://www.w3.org/2000/svg">
<rect x="0.25" y="0.25" width="162.358" height="99.5" rx="9.75" fill="#F8F8F8" stroke="#D2D2D2" stroke-width="0.5"/>
<path d="M90.252 9.01953C97.7078 9.01953 103.752 15.0637 103.752 22.5195C103.752 29.9754 97.7078 36.0195 90.252 36.0195C82.7961 36.0195 76.752 29.9754 76.752 22.5195C76.752 15.0637 82.7961 9.01953 90.252 9.01953ZM90.252 14.0195C85.5575 14.0195 81.752 17.8251 81.752 22.5195C81.752 27.214 85.5575 31.0195 90.252 31.0195C94.9464 31.0195 98.752 27.214 98.752 22.5195C98.752 17.8251 94.9464 14.0195 90.252 14.0195Z" fill="#D2D2D2"/>
<g filter="url(#filter0_f_2147_282)">
<path d="M76.833 17.0195C76.137 18.7158 75.752 20.5726 75.752 22.5195C75.752 24.4665 76.137 26.3233 76.833 28.0195H18.252C15.2144 28.0195 12.752 25.5571 12.752 22.5195C12.752 19.482 15.2144 17.0195 18.252 17.0195H76.833ZM94.9727 17.0195C96.5203 18.3492 97.502 20.3191 97.502 22.5195C97.502 24.72 96.5203 26.6899 94.9727 28.0195H85.5312C83.9836 26.6899 83.002 24.72 83.002 22.5195C83.002 20.3191 83.9836 18.3492 85.5312 17.0195H94.9727ZM144.252 17.0195C147.29 17.0195 149.752 19.482 149.752 22.5195C149.752 25.5571 147.29 28.0195 144.252 28.0195H103.671C104.367 26.3233 104.752 24.4665 104.752 22.5195C104.752 20.5726 104.367 18.7158 103.671 17.0195H144.252Z" fill="white"/>
</g>
<path d="M76.833 17.0195C76.137 18.7158 75.752 20.5726 75.752 22.5195C75.752 24.4665 76.137 26.3233 76.833 28.0195H18.252C15.2144 28.0195 12.752 25.5571 12.752 22.5195C12.752 19.482 15.2144 17.0195 18.252 17.0195H76.833ZM94.9727 17.0195C96.5203 18.3492 97.502 20.3191 97.502 22.5195C97.502 24.72 96.5203 26.6899 94.9727 28.0195H85.5312C83.9836 26.6899 83.002 24.72 83.002 22.5195C83.002 20.3191 83.9836 18.3492 85.5312 17.0195H94.9727ZM144.252 17.0195C147.29 17.0195 149.752 19.482 149.752 22.5195C149.752 25.5571 147.29 28.0195 144.252 28.0195H103.671C104.367 26.3233 104.752 24.4665 104.752 22.5195C104.752 20.5726 104.367 18.7158 103.671 17.0195H144.252Z" fill="#D2D2D2" fill-opacity="0.5"/>
<path d="M77.252 63.0195C84.7078 63.0195 90.752 69.0637 90.752 76.5195C90.752 83.9754 84.7078 90.0195 77.252 90.0195C69.7961 90.0195 63.752 83.9754 63.752 76.5195C63.752 69.0637 69.7961 63.0195 77.252 63.0195ZM77.252 68.0195C72.5575 68.0195 68.752 71.8251 68.752 76.5195C68.752 81.214 72.5575 85.0195 77.252 85.0195C81.9464 85.0195 85.752 81.214 85.752 76.5195C85.752 71.8251 81.9464 68.0195 77.252 68.0195Z" fill="#D2D2D2"/>
<path d="M63.833 71.0195C63.137 72.7158 62.752 74.5726 62.752 76.5195C62.752 78.4665 63.137 80.3233 63.833 82.0195H18.252C15.2144 82.0195 12.752 79.5571 12.752 76.5195C12.752 73.482 15.2144 71.0195 18.252 71.0195H63.833ZM81.9727 71.0195C83.5203 72.3492 84.502 74.3191 84.502 76.5195C84.502 78.72 83.5203 80.6899 81.9727 82.0195H72.5312C70.9836 80.6899 70.002 78.72 70.002 76.5195C70.002 74.3191 70.9836 72.3492 72.5312 71.0195H81.9727ZM144.252 71.0195C147.29 71.0195 149.752 73.482 149.752 76.5195C149.752 79.5571 147.29 82.0195 144.252 82.0195H90.6709C91.3669 80.3233 91.752 78.4665 91.752 76.5195C91.752 74.5726 91.3669 72.7158 90.6709 71.0195H144.252Z" fill="url(#paint0_linear_2147_282)"/>
<path d="M53.252 63.0195C45.7961 63.0195 39.752 56.9754 39.752 49.5195C39.752 42.0637 45.7961 36.0195 53.252 36.0195C60.7078 36.0195 66.752 42.0637 66.752 49.5195C66.752 56.9754 60.7078 63.0195 53.252 63.0195ZM53.252 58.0195C57.9464 58.0195 61.752 54.214 61.752 49.5195C61.752 44.8251 57.9464 41.0195 53.252 41.0195C48.5575 41.0195 44.752 44.8251 44.752 49.5195C44.752 54.214 48.5575 58.0195 53.252 58.0195Z" fill="#D3D3D3"/>
<g filter="url(#filter1_f_2147_282)">
<path d="M65.6709 55.0195C66.3669 53.3233 66.752 51.4665 66.752 49.5195C66.752 47.5726 66.3669 45.7158 65.6709 44.0195L144.252 44.0195C147.29 44.0195 149.752 46.482 149.752 49.5195C149.752 52.5571 147.29 55.0195 144.252 55.0195L65.6709 55.0195ZM48.5312 55.0195C46.9836 53.6899 46.002 51.72 46.002 49.5195C46.002 47.3191 46.9836 45.3492 48.5312 44.0195L57.9727 44.0195C59.5203 45.3492 60.502 47.3191 60.502 49.5195C60.502 51.72 59.5203 53.6899 57.9727 55.0195L48.5312 55.0195ZM18.252 55.0195C15.2144 55.0195 12.752 52.5571 12.752 49.5195C12.752 46.482 15.2144 44.0195 18.252 44.0195L38.833 44.0195C38.137 45.7158 37.752 47.5726 37.752 49.5195C37.752 51.4665 38.137 53.3233 38.833 55.0195L18.252 55.0195Z" fill="url(#paint1_linear_2147_282)"/>
</g>
<path d="M66.6709 55.0195C67.3669 53.3233 67.752 51.4665 67.752 49.5195C67.752 47.5726 67.3669 45.7158 66.6709 44.0195L144.252 44.0195C147.29 44.0195 149.752 46.482 149.752 49.5195C149.752 52.5571 147.29 55.0195 144.252 55.0195L66.6709 55.0195ZM48.5312 55.0195C46.9836 53.6899 46.002 51.72 46.002 49.5195C46.002 47.3191 46.9836 45.3492 48.5312 44.0195L57.9727 44.0195C59.5203 45.3492 60.502 47.3191 60.502 49.5195C60.502 51.72 59.5203 53.6899 57.9727 55.0195L48.5312 55.0195ZM18.252 55.0195C15.2144 55.0195 12.752 52.5571 12.752 49.5195C12.752 46.482 15.2144 44.0195 18.252 44.0195L39.833 44.0195C39.137 45.7158 38.752 47.5726 38.752 49.5195C38.752 51.4665 39.137 53.3233 39.833 55.0195L18.252 55.0195Z" fill="url(#paint2_linear_2147_282)"/>
<defs>
<filter id="filter0_f_2147_282" x="8.75195" y="13.0195" width="145" height="19" filterUnits="userSpaceOnUse" color-interpolation-filters="sRGB">
<feFlood flood-opacity="0" result="BackgroundImageFix"/>
<feBlend mode="normal" in="SourceGraphic" in2="BackgroundImageFix" result="shape"/>
<feGaussianBlur stdDeviation="2" result="effect1_foregroundBlur_2147_282"/>
</filter>
<filter id="filter1_f_2147_282" x="8.75195" y="40.0195" width="145" height="19" filterUnits="userSpaceOnUse" color-interpolation-filters="sRGB">
<feFlood flood-opacity="0" result="BackgroundImageFix"/>
<feBlend mode="normal" in="SourceGraphic" in2="BackgroundImageFix" result="shape"/>
<feGaussianBlur stdDeviation="2" result="effect1_foregroundBlur_2147_282"/>
</filter>
<linearGradient id="paint0_linear_2147_282" x1="12.752" y1="76.5195" x2="149.752" y2="76.5195" gradientUnits="userSpaceOnUse">
<stop stop-color="#A5FF69"/>
<stop offset="0.403901" stop-color="#D5D5D5" stop-opacity="0.4"/>
<stop offset="0.596213" stop-color="#D2D2D2" stop-opacity="0.4"/>
<stop offset="0.976028" stop-color="#E68AFF"/>
</linearGradient>
<linearGradient id="paint1_linear_2147_282" x1="149.752" y1="49.5195" x2="12.752" y2="49.5195" gradientUnits="userSpaceOnUse">
<stop stop-color="#FFDD00"/>
<stop offset="0.403303" stop-color="white"/>
<stop offset="0.603573" stop-color="white"/>
<stop offset="1" stop-color="#539DFF"/>
</linearGradient>
<linearGradient id="paint2_linear_2147_282" x1="149.752" y1="49.5195" x2="12.752" y2="49.5195" gradientUnits="userSpaceOnUse">
<stop stop-color="#FFDD00"/>
<stop offset="0.403303" stop-color="#D2D2D2" stop-opacity="0.4"/>
<stop offset="0.603573" stop-color="#D2D2D2" stop-opacity="0.4"/>
<stop offset="1" stop-color="#539DFF"/>
</linearGradient>
</defs>
</svg>
