<svg width="163" height="100" viewBox="0 0 163 100" fill="none" xmlns="http://www.w3.org/2000/svg">
<rect x="0.25" y="0.25" width="162.358" height="99.5" rx="9.75" fill="#F8F8F8" stroke="#D2D2D2" stroke-width="0.5"/>
<path d="M102.252 9.02002C109.708 9.02002 115.752 15.0642 115.752 22.52C115.752 29.9759 109.708 36.02 102.252 36.02C94.7961 36.02 88.752 29.9759 88.752 22.52C88.752 15.0642 94.7961 9.02002 102.252 9.02002ZM102.252 14.02C97.5575 14.02 93.752 17.8256 93.752 22.52C93.752 27.2144 97.5575 31.02 102.252 31.02C106.946 31.02 110.752 27.2144 110.752 22.52C110.752 17.8256 106.946 14.02 102.252 14.02Z" fill="#D2D2D2"/>
<g filter="url(#filter0_f_2079_98)">
<path d="M88.833 17.02C88.137 18.7162 87.752 20.573 87.752 22.52C87.752 24.467 88.137 26.3238 88.833 28.02H18.252C15.2144 28.02 12.752 25.5576 12.752 22.52C12.752 19.4825 15.2144 17.02 18.252 17.02L88.833 17.02ZM106.973 17.02C108.52 18.3496 109.502 20.3196 109.502 22.52C109.502 24.7205 108.52 26.6904 106.973 28.02H97.5312C95.9836 26.6904 95.002 24.7205 95.002 22.52C95.002 20.3196 95.9836 18.3496 97.5312 17.02L106.973 17.02ZM144.252 17.02C147.29 17.02 149.752 19.4825 149.752 22.52C149.752 25.5576 147.29 28.02 144.252 28.02H115.671C116.367 26.3238 116.752 24.467 116.752 22.52C116.752 20.573 116.367 18.7162 115.671 17.02L144.252 17.02Z" fill="white"/>
</g>
<path d="M88.833 17.02C88.137 18.7162 87.752 20.573 87.752 22.52C87.752 24.467 88.137 26.3238 88.833 28.02H18.252C15.2144 28.02 12.752 25.5576 12.752 22.52C12.752 19.4825 15.2144 17.02 18.252 17.02L88.833 17.02ZM106.973 17.02C108.52 18.3496 109.502 20.3196 109.502 22.52C109.502 24.7205 108.52 26.6904 106.973 28.02H97.5312C95.9836 26.6904 95.002 24.7205 95.002 22.52C95.002 20.3196 95.9836 18.3496 97.5312 17.02L106.973 17.02ZM144.252 17.02C147.29 17.02 149.752 19.4825 149.752 22.52C149.752 25.5576 147.29 28.02 144.252 28.02H115.671C116.367 26.3238 116.752 24.467 116.752 22.52C116.752 20.573 116.367 18.7162 115.671 17.02L144.252 17.02Z" fill="#D2D2D2" fill-opacity="0.5"/>
<path d="M89.252 63.02C96.7078 63.02 102.752 69.0642 102.752 76.52C102.752 83.9759 96.7078 90.02 89.252 90.02C81.7961 90.02 75.752 83.9759 75.752 76.52C75.752 69.0642 81.7961 63.02 89.252 63.02ZM89.252 68.02C84.5575 68.02 80.752 71.8256 80.752 76.52C80.752 81.2144 84.5575 85.02 89.252 85.02C93.9464 85.02 97.752 81.2144 97.752 76.52C97.752 71.8256 93.9464 68.02 89.252 68.02Z" fill="#D2D2D2"/>
<path d="M75.833 71.02C75.137 72.7162 74.752 74.573 74.752 76.52C74.752 78.467 75.137 80.3238 75.833 82.02H18.252C15.2144 82.02 12.752 79.5576 12.752 76.52C12.752 73.4825 15.2144 71.02 18.252 71.02H75.833ZM93.9727 71.02C95.5203 72.3496 96.502 74.3196 96.502 76.52C96.502 78.7205 95.5203 80.6904 93.9727 82.02H84.5312C82.9836 80.6904 82.002 78.7205 82.002 76.52C82.002 74.3196 82.9836 72.3496 84.5312 71.02H93.9727ZM144.252 71.02C147.29 71.02 149.752 73.4825 149.752 76.52C149.752 79.5576 147.29 82.02 144.252 82.02H102.671C103.367 80.3238 103.752 78.467 103.752 76.52C103.752 74.573 103.367 72.7162 102.671 71.02H144.252Z" fill="url(#paint0_linear_2079_98)"/>
<path d="M41.252 63.02C33.7961 63.02 27.752 56.9759 27.752 49.52C27.752 42.0642 33.7961 36.02 41.252 36.02C48.7078 36.02 54.752 42.0642 54.752 49.52C54.752 56.9759 48.7078 63.02 41.252 63.02ZM41.252 58.02C45.9464 58.02 49.752 54.2144 49.752 49.52C49.752 44.8256 45.9464 41.02 41.252 41.02C36.5575 41.02 32.752 44.8256 32.752 49.52C32.752 54.2144 36.5575 58.02 41.252 58.02Z" fill="#D3D3D3"/>
<g filter="url(#filter1_f_2079_98)">
<path d="M53.6709 55.02C54.3669 53.3238 54.752 51.467 54.752 49.52C54.752 47.5731 54.3669 45.7162 53.6709 44.02L144.252 44.02C147.29 44.02 149.752 46.4825 149.752 49.52C149.752 52.5576 147.29 55.02 144.252 55.02L53.6709 55.02ZM36.5312 55.02C34.9836 53.6904 34.002 51.7205 34.002 49.52C34.002 47.3196 34.9836 45.3497 36.5312 44.02L45.9727 44.02C47.5203 45.3497 48.502 47.3196 48.502 49.52C48.502 51.7205 47.5203 53.6904 45.9727 55.02L36.5312 55.02ZM18.252 55.02C15.2144 55.02 12.752 52.5576 12.752 49.52C12.752 46.4825 15.2144 44.02 18.252 44.02L26.833 44.02C26.137 45.7163 25.752 47.5731 25.752 49.52C25.752 51.467 26.137 53.3238 26.833 55.02L18.252 55.02Z" fill="url(#paint1_linear_2079_98)"/>
</g>
<path d="M54.6709 55.02C55.3669 53.3238 55.752 51.467 55.752 49.52C55.752 47.5731 55.3669 45.7162 54.6709 44.02L144.252 44.02C147.29 44.02 149.752 46.4825 149.752 49.52C149.752 52.5576 147.29 55.02 144.252 55.02L54.6709 55.02ZM36.5312 55.02C34.9836 53.6904 34.002 51.7205 34.002 49.52C34.002 47.3196 34.9836 45.3497 36.5312 44.02L45.9727 44.02C47.5203 45.3497 48.502 47.3196 48.502 49.52C48.502 51.7205 47.5203 53.6904 45.9727 55.02L36.5312 55.02ZM18.252 55.02C15.2144 55.02 12.752 52.5576 12.752 49.52C12.752 46.4825 15.2144 44.02 18.252 44.02L27.833 44.02C27.137 45.7163 26.752 47.5731 26.752 49.52C26.752 51.467 27.137 53.3238 27.833 55.02L18.252 55.02Z" fill="url(#paint2_linear_2079_98)"/>
<defs>
<filter id="filter0_f_2079_98" x="8.75195" y="13.02" width="145" height="19" filterUnits="userSpaceOnUse" color-interpolation-filters="sRGB">
<feFlood flood-opacity="0" result="BackgroundImageFix"/>
<feBlend mode="normal" in="SourceGraphic" in2="BackgroundImageFix" result="shape"/>
<feGaussianBlur stdDeviation="2" result="effect1_foregroundBlur_2079_98"/>
</filter>
<filter id="filter1_f_2079_98" x="8.75195" y="40.02" width="145" height="19" filterUnits="userSpaceOnUse" color-interpolation-filters="sRGB">
<feFlood flood-opacity="0" result="BackgroundImageFix"/>
<feBlend mode="normal" in="SourceGraphic" in2="BackgroundImageFix" result="shape"/>
<feGaussianBlur stdDeviation="2" result="effect1_foregroundBlur_2079_98"/>
</filter>
<linearGradient id="paint0_linear_2079_98" x1="12.752" y1="76.52" x2="149.752" y2="76.52" gradientUnits="userSpaceOnUse">
<stop stop-color="#A5FF69"/>
<stop offset="0.403901" stop-color="#D5D5D5" stop-opacity="0.4"/>
<stop offset="0.596213" stop-color="#D2D2D2" stop-opacity="0.4"/>
<stop offset="0.976028" stop-color="#E68AFF"/>
</linearGradient>
<linearGradient id="paint1_linear_2079_98" x1="149.752" y1="49.52" x2="12.752" y2="49.52" gradientUnits="userSpaceOnUse">
<stop stop-color="#FFDD00"/>
<stop offset="0.403303" stop-color="white"/>
<stop offset="0.603573" stop-color="white"/>
<stop offset="1" stop-color="#539DFF"/>
</linearGradient>
<linearGradient id="paint2_linear_2079_98" x1="149.752" y1="49.52" x2="12.752" y2="49.52" gradientUnits="userSpaceOnUse">
<stop stop-color="#FFDD00"/>
<stop offset="0.403303" stop-color="#D2D2D2" stop-opacity="0.4"/>
<stop offset="0.603573" stop-color="#D2D2D2" stop-opacity="0.4"/>
<stop offset="1" stop-color="#539DFF"/>
</linearGradient>
</defs>
</svg>
