<svg width="163" height="100" viewBox="0 0 163 100" fill="none" xmlns="http://www.w3.org/2000/svg">
<rect x="0.25" y="0.25" width="162.358" height="99.5" rx="9.75" fill="#F8F8F8" stroke="#D2D2D2" stroke-width="0.5"/>
<path d="M94.252 9.02002C101.708 9.02002 107.752 15.0642 107.752 22.52C107.752 29.9759 101.708 36.02 94.252 36.02C86.7961 36.02 80.752 29.9759 80.752 22.52C80.752 15.0642 86.7961 9.02002 94.252 9.02002ZM94.252 14.02C89.5575 14.02 85.752 17.8256 85.752 22.52C85.752 27.2144 89.5575 31.02 94.252 31.02C98.9464 31.02 102.752 27.2144 102.752 22.52C102.752 17.8256 98.9464 14.02 94.252 14.02Z" fill="#D2D2D2"/>
<g filter="url(#filter0_f_2147_200)">
<path d="M80.833 17.02C80.137 18.7162 79.752 20.573 79.752 22.52C79.752 24.467 80.137 26.3238 80.833 28.02H18.252C15.2144 28.02 12.752 25.5576 12.752 22.52C12.752 19.4825 15.2144 17.02 18.252 17.02H80.833ZM98.9727 17.02C100.52 18.3496 101.502 20.3196 101.502 22.52C101.502 24.7205 100.52 26.6904 98.9727 28.02H89.5312C87.9836 26.6904 87.002 24.7205 87.002 22.52C87.002 20.3196 87.9836 18.3496 89.5312 17.02H98.9727ZM144.252 17.02C147.29 17.02 149.752 19.4825 149.752 22.52C149.752 25.5576 147.29 28.02 144.252 28.02H107.671C108.367 26.3238 108.752 24.467 108.752 22.52C108.752 20.573 108.367 18.7162 107.671 17.02H144.252Z" fill="white"/>
</g>
<path d="M80.833 17.02C80.137 18.7162 79.752 20.573 79.752 22.52C79.752 24.467 80.137 26.3238 80.833 28.02H18.252C15.2144 28.02 12.752 25.5576 12.752 22.52C12.752 19.4825 15.2144 17.02 18.252 17.02H80.833ZM98.9727 17.02C100.52 18.3496 101.502 20.3196 101.502 22.52C101.502 24.7205 100.52 26.6904 98.9727 28.02H89.5312C87.9836 26.6904 87.002 24.7205 87.002 22.52C87.002 20.3196 87.9836 18.3496 89.5312 17.02H98.9727ZM144.252 17.02C147.29 17.02 149.752 19.4825 149.752 22.52C149.752 25.5576 147.29 28.02 144.252 28.02H107.671C108.367 26.3238 108.752 24.467 108.752 22.52C108.752 20.573 108.367 18.7162 107.671 17.02H144.252Z" fill="#D2D2D2" fill-opacity="0.5"/>
<path d="M81.252 63.0195C88.7078 63.0195 94.752 69.0637 94.752 76.5195C94.752 83.9754 88.7078 90.0195 81.252 90.0195C73.7961 90.0195 67.752 83.9754 67.752 76.5195C67.752 69.0637 73.7961 63.0195 81.252 63.0195ZM81.252 68.0195C76.5575 68.0195 72.752 71.8251 72.752 76.5195C72.752 81.214 76.5575 85.0195 81.252 85.0195C85.9464 85.0195 89.752 81.214 89.752 76.5195C89.752 71.8251 85.9464 68.0195 81.252 68.0195Z" fill="#D2D2D2"/>
<path d="M67.833 71.0195C67.137 72.7158 66.752 74.5726 66.752 76.5195C66.752 78.4665 67.137 80.3233 67.833 82.0195H18.252C15.2144 82.0195 12.752 79.5571 12.752 76.5195C12.752 73.482 15.2144 71.0195 18.252 71.0195H67.833ZM85.9727 71.0195C87.5203 72.3492 88.502 74.3191 88.502 76.5195C88.502 78.72 87.5203 80.6899 85.9727 82.0195H76.5312C74.9836 80.6899 74.002 78.72 74.002 76.5195C74.002 74.3191 74.9836 72.3492 76.5312 71.0195H85.9727ZM144.252 71.0195C147.29 71.0195 149.752 73.482 149.752 76.5195C149.752 79.5571 147.29 82.0195 144.252 82.0195H94.6709C95.3669 80.3233 95.752 78.4665 95.752 76.5195C95.752 74.5726 95.3669 72.7158 94.6709 71.0195H144.252Z" fill="url(#paint0_linear_2147_200)"/>
<path d="M49.252 63.0195C41.7961 63.0195 35.752 56.9754 35.752 49.5195C35.752 42.0637 41.7961 36.0195 49.252 36.0195C56.7078 36.0195 62.752 42.0637 62.752 49.5195C62.752 56.9754 56.7078 63.0195 49.252 63.0195ZM49.252 58.0195C53.9464 58.0195 57.752 54.214 57.752 49.5195C57.752 44.8251 53.9464 41.0195 49.252 41.0195C44.5575 41.0195 40.752 44.8251 40.752 49.5195C40.752 54.214 44.5575 58.0195 49.252 58.0195Z" fill="#D3D3D3"/>
<g filter="url(#filter1_f_2147_200)">
<path d="M61.6719 55.02C62.3676 53.324 62.752 51.4667 62.752 49.52C62.7519 47.5731 62.3669 45.7162 61.6709 44.02L144.252 44.02C147.29 44.02 149.752 46.4825 149.752 49.52C149.752 52.5576 147.29 55.02 144.252 55.02L61.6719 55.02ZM44.5312 55.02C42.9837 53.6904 42.002 51.7204 42.002 49.52C42.0021 47.3194 42.9842 45.3496 44.5322 44.02L53.9717 44.02C55.5197 45.3496 56.5018 47.3194 56.502 49.52C56.502 51.7204 55.5202 53.6904 53.9727 55.02L44.5312 55.02ZM18.252 55.02C15.2144 55.02 12.752 52.5576 12.752 49.52C12.752 46.4825 15.2144 44.02 18.252 44.02L34.833 44.02C34.137 45.7162 33.752 47.5731 33.752 49.52C33.752 51.4667 34.1363 53.324 34.832 55.02L18.252 55.02Z" fill="url(#paint1_linear_2147_200)"/>
</g>
<path d="M62.6719 55.02C63.3676 53.324 63.752 51.4667 63.752 49.52C63.7519 47.5731 63.3669 45.7162 62.6709 44.02L144.252 44.02C147.29 44.02 149.752 46.4825 149.752 49.52C149.752 52.5576 147.29 55.02 144.252 55.02L62.6719 55.02ZM44.5312 55.02C42.9837 53.6904 42.002 51.7204 42.002 49.52C42.0021 47.3194 42.9842 45.3496 44.5322 44.02L53.9717 44.02C55.5197 45.3496 56.5018 47.3194 56.502 49.52C56.502 51.7204 55.5202 53.6904 53.9727 55.02L44.5312 55.02ZM18.252 55.02C15.2144 55.02 12.752 52.5576 12.752 49.52C12.752 46.4825 15.2144 44.02 18.252 44.02L35.833 44.02C35.137 45.7162 34.752 47.5731 34.752 49.52C34.752 51.4667 35.1363 53.324 35.832 55.02L18.252 55.02Z" fill="url(#paint2_linear_2147_200)"/>
<defs>
<filter id="filter0_f_2147_200" x="8.75195" y="13.02" width="145" height="19" filterUnits="userSpaceOnUse" color-interpolation-filters="sRGB">
<feFlood flood-opacity="0" result="BackgroundImageFix"/>
<feBlend mode="normal" in="SourceGraphic" in2="BackgroundImageFix" result="shape"/>
<feGaussianBlur stdDeviation="2" result="effect1_foregroundBlur_2147_200"/>
</filter>
<filter id="filter1_f_2147_200" x="8.75195" y="40.02" width="145" height="19" filterUnits="userSpaceOnUse" color-interpolation-filters="sRGB">
<feFlood flood-opacity="0" result="BackgroundImageFix"/>
<feBlend mode="normal" in="SourceGraphic" in2="BackgroundImageFix" result="shape"/>
<feGaussianBlur stdDeviation="2" result="effect1_foregroundBlur_2147_200"/>
</filter>
<linearGradient id="paint0_linear_2147_200" x1="12.752" y1="76.5195" x2="149.752" y2="76.5195" gradientUnits="userSpaceOnUse">
<stop stop-color="#A5FF69"/>
<stop offset="0.403901" stop-color="#D5D5D5" stop-opacity="0.4"/>
<stop offset="0.596213" stop-color="#D2D2D2" stop-opacity="0.4"/>
<stop offset="0.976028" stop-color="#E68AFF"/>
</linearGradient>
<linearGradient id="paint1_linear_2147_200" x1="149.752" y1="49.52" x2="12.752" y2="49.52" gradientUnits="userSpaceOnUse">
<stop stop-color="#FFDD00"/>
<stop offset="0.403303" stop-color="white"/>
<stop offset="0.603573" stop-color="white"/>
<stop offset="1" stop-color="#539DFF"/>
</linearGradient>
<linearGradient id="paint2_linear_2147_200" x1="149.752" y1="49.52" x2="12.752" y2="49.52" gradientUnits="userSpaceOnUse">
<stop stop-color="#FFDD00"/>
<stop offset="0.403303" stop-color="#D2D2D2" stop-opacity="0.4"/>
<stop offset="0.603573" stop-color="#D2D2D2" stop-opacity="0.4"/>
<stop offset="1" stop-color="#539DFF"/>
</linearGradient>
</defs>
</svg>
