<svg width="163" height="100" viewBox="0 0 163 100" fill="none" xmlns="http://www.w3.org/2000/svg">
<rect x="0.25" y="0.25" width="162.358" height="99.5" rx="9.75" fill="#F8F8F8" stroke="#D2D2D2" stroke-width="0.5"/>
<path d="M96.252 9.02002C103.708 9.02002 109.752 15.0642 109.752 22.52C109.752 29.9759 103.708 36.02 96.252 36.02C88.7961 36.02 82.752 29.9759 82.752 22.52C82.752 15.0642 88.7961 9.02002 96.252 9.02002ZM96.252 14.02C91.5575 14.02 87.752 17.8256 87.752 22.52C87.752 27.2144 91.5575 31.02 96.252 31.02C100.946 31.02 104.752 27.2144 104.752 22.52C104.752 17.8256 100.946 14.02 96.252 14.02Z" fill="#D2D2D2"/>
<g filter="url(#filter0_f_2147_159)">
<path d="M82.833 17.02C82.137 18.7162 81.752 20.573 81.752 22.52C81.752 24.467 82.137 26.3238 82.833 28.02H18.252C15.2144 28.02 12.752 25.5576 12.752 22.52C12.752 19.4825 15.2144 17.02 18.252 17.02H82.833ZM100.973 17.02C102.52 18.3496 103.502 20.3196 103.502 22.52C103.502 24.7205 102.52 26.6904 100.973 28.02H91.5312C89.9836 26.6904 89.002 24.7205 89.002 22.52C89.002 20.3196 89.9836 18.3496 91.5312 17.02H100.973ZM144.252 17.02C147.29 17.02 149.752 19.4825 149.752 22.52C149.752 25.5576 147.29 28.02 144.252 28.02H109.671C110.367 26.3238 110.752 24.467 110.752 22.52C110.752 20.573 110.367 18.7162 109.671 17.02H144.252Z" fill="white"/>
</g>
<path d="M82.833 17.02C82.137 18.7162 81.752 20.573 81.752 22.52C81.752 24.467 82.137 26.3238 82.833 28.02H18.252C15.2144 28.02 12.752 25.5576 12.752 22.52C12.752 19.4825 15.2144 17.02 18.252 17.02H82.833ZM100.973 17.02C102.52 18.3496 103.502 20.3196 103.502 22.52C103.502 24.7205 102.52 26.6904 100.973 28.02H91.5312C89.9836 26.6904 89.002 24.7205 89.002 22.52C89.002 20.3196 89.9836 18.3496 91.5312 17.02H100.973ZM144.252 17.02C147.29 17.02 149.752 19.4825 149.752 22.52C149.752 25.5576 147.29 28.02 144.252 28.02H109.671C110.367 26.3238 110.752 24.467 110.752 22.52C110.752 20.573 110.367 18.7162 109.671 17.02H144.252Z" fill="#D2D2D2" fill-opacity="0.5"/>
<path d="M83.252 63.0195C90.7078 63.0195 96.752 69.0637 96.752 76.5195C96.752 83.9754 90.7078 90.0195 83.252 90.0195C75.7961 90.0195 69.752 83.9754 69.752 76.5195C69.752 69.0637 75.7961 63.0195 83.252 63.0195ZM83.252 68.0195C78.5575 68.0195 74.752 71.8251 74.752 76.5195C74.752 81.214 78.5575 85.0195 83.252 85.0195C87.9464 85.0195 91.752 81.214 91.752 76.5195C91.752 71.8251 87.9464 68.0195 83.252 68.0195Z" fill="#D2D2D2"/>
<path d="M69.833 71.0195C69.137 72.7158 68.752 74.5726 68.752 76.5195C68.752 78.4665 69.137 80.3233 69.833 82.0195H18.252C15.2144 82.0195 12.752 79.5571 12.752 76.5195C12.752 73.482 15.2144 71.0195 18.252 71.0195H69.833ZM87.9727 71.0195C89.5203 72.3492 90.502 74.3191 90.502 76.5195C90.502 78.72 89.5203 80.6899 87.9727 82.0195H78.5312C76.9836 80.6899 76.002 78.72 76.002 76.5195C76.002 74.3191 76.9836 72.3492 78.5312 71.0195H87.9727ZM144.252 71.0195C147.29 71.0195 149.752 73.482 149.752 76.5195C149.752 79.5571 147.29 82.0195 144.252 82.0195H96.6709C97.3669 80.3233 97.752 78.4665 97.752 76.5195C97.752 74.5726 97.3669 72.7158 96.6709 71.0195H144.252Z" fill="url(#paint0_linear_2147_159)"/>
<path d="M47.252 63.0195C39.7961 63.0195 33.752 56.9754 33.752 49.5195C33.752 42.0637 39.7961 36.0195 47.252 36.0195C54.7078 36.0195 60.752 42.0637 60.752 49.5195C60.752 56.9754 54.7078 63.0195 47.252 63.0195ZM47.252 58.0195C51.9464 58.0195 55.752 54.214 55.752 49.5195C55.752 44.8251 51.9464 41.0195 47.252 41.0195C42.5575 41.0195 38.752 44.8251 38.752 49.5195C38.752 54.214 42.5575 58.0195 47.252 58.0195Z" fill="#D3D3D3"/>
<g filter="url(#filter1_f_2147_159)">
<path d="M59.6719 55.02C60.3676 53.324 60.752 51.4667 60.752 49.52C60.7519 47.5731 60.3669 45.7162 59.6709 44.02L144.252 44.02C147.29 44.02 149.752 46.4825 149.752 49.52C149.752 52.5576 147.29 55.02 144.252 55.02L59.6719 55.02ZM42.5312 55.02C40.9837 53.6904 40.002 51.7204 40.002 49.52C40.0021 47.3194 40.9842 45.3496 42.5322 44.02L51.9717 44.02C53.5197 45.3496 54.5018 47.3194 54.502 49.52C54.502 51.7204 53.5202 53.6904 51.9727 55.02L42.5312 55.02ZM18.252 55.02C15.2144 55.02 12.752 52.5576 12.752 49.52C12.752 46.4825 15.2144 44.02 18.252 44.02L32.833 44.02C32.137 45.7162 31.752 47.5731 31.752 49.52C31.752 51.4667 32.1363 53.324 32.832 55.02L18.252 55.02Z" fill="url(#paint1_linear_2147_159)"/>
</g>
<path d="M60.6719 55.02C61.3676 53.324 61.752 51.4667 61.752 49.52C61.7519 47.5731 61.3669 45.7162 60.6709 44.02L144.252 44.02C147.29 44.02 149.752 46.4825 149.752 49.52C149.752 52.5576 147.29 55.02 144.252 55.02L60.6719 55.02ZM42.5312 55.02C40.9837 53.6904 40.002 51.7204 40.002 49.52C40.0021 47.3194 40.9842 45.3496 42.5322 44.02L51.9717 44.02C53.5197 45.3496 54.5018 47.3194 54.502 49.52C54.502 51.7204 53.5202 53.6904 51.9727 55.02L42.5312 55.02ZM18.252 55.02C15.2144 55.02 12.752 52.5576 12.752 49.52C12.752 46.4825 15.2144 44.02 18.252 44.02L33.833 44.02C33.137 45.7162 32.752 47.5731 32.752 49.52C32.752 51.4667 33.1363 53.324 33.832 55.02L18.252 55.02Z" fill="url(#paint2_linear_2147_159)"/>
<defs>
<filter id="filter0_f_2147_159" x="8.75195" y="13.02" width="145" height="19" filterUnits="userSpaceOnUse" color-interpolation-filters="sRGB">
<feFlood flood-opacity="0" result="BackgroundImageFix"/>
<feBlend mode="normal" in="SourceGraphic" in2="BackgroundImageFix" result="shape"/>
<feGaussianBlur stdDeviation="2" result="effect1_foregroundBlur_2147_159"/>
</filter>
<filter id="filter1_f_2147_159" x="8.75195" y="40.02" width="145" height="19" filterUnits="userSpaceOnUse" color-interpolation-filters="sRGB">
<feFlood flood-opacity="0" result="BackgroundImageFix"/>
<feBlend mode="normal" in="SourceGraphic" in2="BackgroundImageFix" result="shape"/>
<feGaussianBlur stdDeviation="2" result="effect1_foregroundBlur_2147_159"/>
</filter>
<linearGradient id="paint0_linear_2147_159" x1="12.752" y1="76.5195" x2="149.752" y2="76.5195" gradientUnits="userSpaceOnUse">
<stop stop-color="#A5FF69"/>
<stop offset="0.403901" stop-color="#D5D5D5" stop-opacity="0.4"/>
<stop offset="0.596213" stop-color="#D2D2D2" stop-opacity="0.4"/>
<stop offset="0.976028" stop-color="#E68AFF"/>
</linearGradient>
<linearGradient id="paint1_linear_2147_159" x1="149.752" y1="49.52" x2="12.752" y2="49.52" gradientUnits="userSpaceOnUse">
<stop stop-color="#FFDD00"/>
<stop offset="0.403303" stop-color="white"/>
<stop offset="0.603573" stop-color="white"/>
<stop offset="1" stop-color="#539DFF"/>
</linearGradient>
<linearGradient id="paint2_linear_2147_159" x1="149.752" y1="49.52" x2="12.752" y2="49.52" gradientUnits="userSpaceOnUse">
<stop stop-color="#FFDD00"/>
<stop offset="0.403303" stop-color="#D2D2D2" stop-opacity="0.4"/>
<stop offset="0.603573" stop-color="#D2D2D2" stop-opacity="0.4"/>
<stop offset="1" stop-color="#539DFF"/>
</linearGradient>
</defs>
</svg>
