<svg width="114" height="114" viewBox="0 0 114 114" fill="none" xmlns="http://www.w3.org/2000/svg">
<path d="M53 0C55.375 0.25 55.375 0.25 58 1C59.3125 3.0625 59.3125 3.0625 60 5C60.66 3.68 61.32 2.36 62 1C63.32 1 64.64 1 66 1C66.495 3.475 66.495 3.475 67 6C67.66 6 68.32 6 69 6C69.66 4.68 70.32 3.36 71 2C72.32 2.33 73.64 2.66 75 3C75 4.98 75 6.96 75 9C75.99 9 76.98 9 78 9C78.33 7.68 78.66 6.36 79 5C80.32 5.33 81.64 5.66 83 6C82.67 8.31 82.34 10.62 82 13C82.99 12.67 83.98 12.34 85 12C85.33 11.34 85.66 10.68 86 10C87.65 10.33 89.3 10.66 91 11C90.34 13.31 89.68 15.62 89 18C89.7425 17.4638 90.485 16.9275 91.25 16.375C92.6113 15.6944 92.6113 15.6944 94 15C96.3125 15.8125 96.3125 15.8125 98 17C97.34 18.98 96.68 20.96 96 23C97.98 22.67 99.96 22.34 102 22C102.495 23.98 102.495 23.98 103 26C102.34 26 101.68 26 101 26C100.67 27.32 100.34 28.64 100 30C102.31 29.67 104.62 29.34 107 29C107.495 30.98 107.495 30.98 108 33C107.01 33.66 106.02 34.32 105 35C105 35.66 105 36.32 105 37C106.98 37 108.96 37 111 37C111.495 38.98 111.495 38.98 112 41C110.02 41.99 110.02 41.99 108 43C108 43.66 108 44.32 108 45C109.65 45 111.3 45 113 45C113.495 47.475 113.495 47.475 114 50C113.041 50.1547 113.041 50.1547 112.062 50.3125C111.382 50.5394 110.701 50.7662 110 51C109.67 51.99 109.34 52.98 109 54C110.65 54 112.3 54 114 54C114 55.65 114 57.3 114 59C112.35 59 110.7 59 109 59C109.33 59.99 109.66 60.98 110 62C112.015 62.7332 112.015 62.7332 114 63C113.67 64.65 113.34 66.3 113 68C111.02 68 109.04 68 107 68C107.454 68.4538 107.907 68.9075 108.375 69.375C109.583 70.5833 110.792 71.7917 112 73C111.505 74.485 111.505 74.485 111 76C109.35 76 107.7 76 106 76C106.351 76.5775 106.701 77.155 107.062 77.75C108.149 80.358 107.931 81.3942 107 84C105.35 84 103.7 84 102 84C102 84.99 102 85.98 102 87C102.66 87 103.32 87 104 87C103.505 88.98 103.505 88.98 103 91C101.02 90.67 99.04 90.34 97 90C97.66 91.98 98.32 93.96 99 96C97.25 97.125 97.25 97.125 95 98C92.75 97.125 92.75 97.125 91 96C91.33 97.98 91.66 99.96 92 102C89.3942 102.931 88.358 103.149 85.75 102.062C85.1725 101.712 84.595 101.361 84 101C84.33 102.98 84.66 104.96 85 107C83.68 107.33 82.36 107.66 81 108C80.67 107.01 80.34 106.02 80 105C79.01 105 78.02 105 77 105C77 106.65 77 108.3 77 110C75.68 110.33 74.36 110.66 73 111C72.67 110.01 72.34 109.02 72 108C71.01 108 70.02 108 69 108C68.67 109.65 68.34 111.3 68 113C66.68 113 65.36 113 64 113C63.67 111.68 63.34 110.36 63 109C62.01 109.495 62.01 109.495 61 110C60.3479 112.025 60.3479 112.025 60 114C58.35 113.67 56.7 113.34 55 113C54.67 112.01 54.34 111.02 54 110C53.01 109.505 53.01 109.505 52 109C51.505 110.98 51.505 110.98 51 113C49.68 113 48.36 113 47 113C46.67 111.35 46.34 109.7 46 108C45.6081 108.516 45.2163 109.031 44.8125 109.562C44.2144 110.037 43.6162 110.511 43 111C40.3125 110.688 40.3125 110.688 38 110C38 108.68 38 107.36 38 106C37.01 106 36.02 106 35 106C35 106.66 35 107.32 35 108C33.35 107.67 31.7 107.34 30 107C30.33 105.35 30.66 103.7 31 102C30.0512 102.351 29.1025 102.701 28.125 103.062C25 104 25 104 23 103C23 101.35 23 99.7 23 98C20.525 98.495 20.525 98.495 18 99C16.875 94.25 16.875 94.25 18 92C16.02 92 14.04 92 12 92C10.875 88.25 10.875 88.25 12 86C10.35 85.67 8.7 85.34 7 85C6.67 83.68 6.34 82.36 6 81C6.99 80.505 6.99 80.505 8 80C8 79.34 8 78.68 8 78C6.35 77.34 4.7 76.68 3 76C3 75.01 3 74.02 3 73C3.99 72.505 3.99 72.505 5 72C5 71.34 5 70.68 5 70C3.68 69.67 2.36 69.34 1 69C1 65 1 65 2.5 63.25C2.995 62.8375 3.49 62.425 4 62C2.68 61.67 1.36 61.34 0 61C0 59.35 0 57.7 0 56C1.32 56 2.64 56 4 56C4 55.01 4 54.02 4 53C2.68 52.67 1.36 52.34 0 52C0.3125 50.0625 0.3125 50.0625 1 48C2.485 47.505 2.485 47.505 4 47C4 46.34 4 45.68 4 45C3.34 44.67 2.68 44.34 2 44C2.33 42.35 2.66 40.7 3 39C4.65 39 6.3 39 8 39C7.22656 38.1338 7.22656 38.1338 6.4375 37.25C5 35 5 35 5.3125 32.75C5.53938 32.1725 5.76625 31.595 6 31C7.65 31 9.3 31 11 31C11 30.01 11 29.02 11 28C10.34 28 9.68 28 9 28C9.33 26.68 9.66 25.36 10 24C11.98 24.33 13.96 24.66 16 25C15.34 23.02 14.68 21.04 14 19C15.75 17.875 15.75 17.875 18 17C20.25 17.875 20.25 17.875 22 19C21.67 17.02 21.34 15.04 21 13C23.6058 12.0693 24.642 11.8508 27.25 12.9375C27.8275 13.2881 28.405 13.6387 29 14C28.67 12.02 28.34 10.04 28 8C30.6058 7.06935 31.642 6.85083 34.25 7.9375C34.8275 8.28813 35.405 8.63875 36 9C36 7.35 36 5.7 36 4C37.32 3.67 38.64 3.34 40 3C40.66 3.99 41.32 4.98 42 6C42.66 6 43.32 6 44 6C44.33 4.35 44.66 2.7 45 1C46.32 1 47.64 1 49 1C49.495 2.98 49.495 2.98 50 5C50.66 5 51.32 5 52 5C52.33 3.35 52.66 1.7 53 0ZM24.9375 25.9375C22.5507 29.7101 22.1082 31.6221 23 36C28.3916 40.8781 34.2041 41.3217 41.2578 41.2148C53.4186 40.2621 67.6647 37.3328 76.7734 28.6055C79.0092 25.6791 79.3284 23.6124 79 20C74.4136 14.9662 69.4644 13.0096 62.6445 12.6641C48.0215 12.3899 35.4613 14.8831 24.9375 25.9375ZM84 28C83.34 28.66 82.68 29.32 82 30C82.0857 32.0929 82.0857 32.0929 83 34C83.99 34.33 84.98 34.66 86 35C86.99 34.01 87.98 33.02 89 32C88.34 30.68 87.68 29.36 87 28C86.01 28 85.02 28 84 28ZM82 46C73.9825 58.4492 70.1747 73.2826 72 88C73.7252 91.7548 74.2585 92.7238 78.1875 94.1875C83.6236 93.9202 86.2272 91.7877 90 88C98.209 78.4228 102.372 67.043 102.223 54.4453C101.776 49.5403 100.743 44.1219 97.5625 40.25C95.9657 38.7883 95.9657 38.7883 93.3125 38.375C88.1642 39.3464 85.3434 42.0615 82 46ZM20 42C19.34 42.66 18.68 43.32 18 44C18.3185 46.1082 18.3185 46.1082 19 48C20.946 48.5907 20.946 48.5907 23 49C24.2963 47.9335 24.2963 47.9335 24.0625 45.4375C24.0419 44.6331 24.0213 43.8288 24 43C22.1082 42.3185 22.1082 42.3185 20 42ZM48 52C46.4498 55.1005 46.7101 57.5789 47 61C48.7956 63.7533 50.0525 65.5263 53 67C58.8135 67.5337 58.8135 67.5337 63.9375 65.125C67.097 61.8698 67.3342 59.5759 67.293 55.0391C66.8375 51.8687 65.2468 50.1808 63 48C56.6846 44.8423 52.0743 46.8145 48 52ZM15.125 56.375C12.5132 60.1476 12.9888 62.8361 13.5 67.2773C14.9137 74.9752 19.0177 81.1129 24 87C24.7522 87.9127 24.7522 87.9127 25.5195 88.8438C30.8541 94.7623 37.965 99.1699 45.8906 100.477C50.6171 100.707 50.6171 100.707 54.7461 98.7188C56.728 96.0021 56.5347 93.797 56.4023 90.5195C54.3824 77.8705 43.1861 67.3028 33.5703 59.8164C28.412 56.1711 21.0391 52.038 15.125 56.375ZM63 91C61.9889 94.0491 61.9889 94.0491 63 97C64.65 97 66.3 97 68 97C68.3822 95.3439 68.714 93.6754 69 92C67.9335 90.7037 67.9335 90.7037 65.4375 90.9375C64.6331 90.9581 63.8288 90.9787 63 91Z" fill="white"/>
</svg>
