<svg width="100" height="143" viewBox="0 0 100 143" fill="none" xmlns="http://www.w3.org/2000/svg">
<path d="M55.146 5.2002H75.146L84.5 10L73.646 30.2002L72.146 38.2002L73.646 48.7002L75.146 59.7002V137.2L65.5 142L55.146 137.2V5.2002Z" fill="#0577DB"/>
<path d="M0.145996 110.2L0.145996 90.2002H37.146L55.646 85.2002L89.146 90.2002V110.2L10 115L0.145996 110.2Z" fill="#0577DB"/>
<path d="M55.147 5.20077L75.1566 10.9484L16.9466 101.05L0.147501 90.1964L16.9466 64.2008L22.646 62.2002L35.146 35.7002L55.147 5.20077Z" fill="#0577DB"/>
<path d="M65.1479 10.2002L84.502 10L85.1479 37.4502L83.6479 35.2002L82.1479 43.2002L83.6479 53.7002L85.1479 64.7002V142.2L65.502 142L65.1479 10.2002Z" fill="#6CBBFB"/>
<path d="M10.0005 115L10.1479 95.2002H47.1479L65.6479 90.2002L99.1479 95.2002V115.2L10.0005 115Z" fill="#6CBBFB"/>
<path d="M65.1485 10.2009L84.5015 16L26.948 106.05L10.1489 95.1965L26.948 69.2009L32.6474 67.2003L45.1474 40.7003L65.1485 10.2009Z" fill="#6CBBFB"/>
</svg>
