<svg width="97" height="144" viewBox="0 0 97 144" fill="none" xmlns="http://www.w3.org/2000/svg">
<path d="M63.001 6.86475H83.001V34.1147L81.501 31.8647L80.001 39.8647L81.501 50.3647L83.001 61.3647V138.865L75 143.865L63.001 138.865V6.86475Z" fill="#0577DB"/>
<path d="M8.00098 111.865L8.00098 91.8647H45.001L63.501 86.8647L97.001 91.8647V111.865L89 116.865L8.00098 111.865Z" fill="#0577DB"/>
<path d="M62.9986 6.86325L83.0082 12.6109L24.7982 102.712L7.99911 91.8589L24.7982 65.8633L30.4976 63.8627L55.5 12.3647L62.9986 6.86325Z" fill="#0577DB"/>
<path d="M55.5 12.3647L75.146 12.0649V39.3149L73.646 37.0649L72.146 45.0649L73.646 55.5649L75.146 66.5649L75 143.865H55.146L55.5 12.3647Z" fill="#6CBBFB"/>
<path d="M0.145996 117.065L0.145996 97.0649H37.146L55.646 92.0649L89.146 97.0649L89 116.865L0.145996 117.065Z" fill="#6CBBFB"/>
<path d="M55.5 12.3647L75.1566 17.8131L16.9466 107.914L0.147501 97.0612L16.9466 71.0655L22.646 69.0649L35.146 42.5649L55.5 12.3647Z" fill="#6CBBFB"/>
</svg>
