<svg width="97" height="143" viewBox="0 0 97 143" fill="none" xmlns="http://www.w3.org/2000/svg">
<path d="M63 5.2002H83V32.4502L81.5 30.2002L80 38.2002L81.5 48.7002L83 59.7002V137.2H63V5.2002Z" fill="#0577DB"/>
<path d="M8 110.2L8 90.2002H45L63.5 85.2002L97 90.2002V110.2H8Z" fill="#0577DB"/>
<path d="M63.001 5.20077L83.0106 10.9484L24.8006 101.05L8.0015 90.1964L24.8006 64.2008L30.5 62.2002L43 35.7002L63.001 5.20077Z" fill="#0577DB"/>
<path d="M55.146 10.4004H75.146V37.6504L73.646 35.4004L72.146 43.4004L73.646 53.9004L75.146 64.9004V142.4H55.146V10.4004Z" fill="#6CBBFB"/>
<path d="M0.145996 115.4L0.145996 95.4004H37.146L55.646 90.4004L89.146 95.4004V115.4H0.145996Z" fill="#6CBBFB"/>
<path d="M55.147 10.401L75.1566 16.1486L16.9466 106.25L0.147501 95.3966L16.9466 69.401L22.646 67.4004L35.146 40.9004L55.147 10.401Z" fill="#6CBBFB"/>
</svg>
