<svg width="318" height="192" viewBox="0 0 318 192" fill="none" xmlns="http://www.w3.org/2000/svg">
<rect x="210.186" y="65.624" width="116" height="83" rx="10" transform="rotate(21.7126 210.186 65.624)" fill="#D9D9D9"/>
<path d="M193.008 124.981C193.008 124.981 222.786 108.315 233.75 113.219C244.713 118.123 253.396 149.027 253.396 149.027" stroke="black"/>
<path d="M250.876 140.489C250.876 140.489 268.688 130.899 276.215 134.972C283.742 139.046 289.801 154.913 289.801 154.913" stroke="black"/>
<path d="M218.968 113.792C218.968 113.792 218.248 115.656 221.964 117.136C225.681 118.616 227.349 117.129 227.349 117.129C227.349 117.129 229.861 120.281 232.649 121.391C235.436 122.501 236.825 120.363 236.825 120.363C236.825 120.363 239.337 123.516 241.01 124.72C242.683 125.925 243.238 124.531 243.238 124.531" stroke="black"/>
<path d="M264.331 135.083C264.331 135.083 265.354 136.567 266.748 137.122C268.141 137.677 270.09 136.838 270.09 136.838C270.09 136.838 270.464 138.602 272.322 139.342C274.18 140.082 276.925 139.605 276.925 139.605C276.925 139.605 278.361 141.746 280.684 142.671C283.006 143.596 283.708 142.845 283.708 142.845" stroke="black"/>
<circle cx="295.051" cy="126.865" r="8" transform="rotate(21.7126 295.051 126.865)" fill="black" stroke="black"/>
<g filter="url(#filter0_d_2065_179)">
<rect x="4.95703" y="27.3838" width="162.858" height="100" rx="10" transform="rotate(-9.68005 4.95703 27.3838)" fill="#585858"/>
</g>
<g filter="url(#filter1_d_2065_179)">
<rect x="2.50439" y="30.8457" width="162.858" height="100" rx="10" transform="rotate(-9.68005 2.50439 30.8457)" fill="#B1B1B1"/>
</g>
<path d="M108.016 21.9776C115.365 20.7239 122.34 25.6657 123.594 33.0154C124.847 40.3651 119.905 47.3395 112.556 48.5932C105.206 49.8468 98.2317 44.905 96.978 37.5553C95.7243 30.2057 100.666 23.2313 108.016 21.9776ZM108.857 26.9064C104.229 27.6957 101.117 32.087 101.907 36.7146C102.696 41.3422 107.087 44.4537 111.715 43.6644C116.343 42.875 119.454 38.4837 118.665 33.8561C117.875 29.2286 113.484 26.117 108.857 26.9064Z" fill="#FFFCFC"/>
<g filter="url(#filter2_f_2065_179)">
<path d="M96.1331 32.1204C95.7322 33.9094 95.6648 35.8046 95.9922 37.7238C96.3196 39.6431 97.0114 41.4087 97.9827 42.9637L28.4066 54.8317C25.4122 55.3424 22.5708 53.3291 22.0601 50.3348C21.5493 47.3405 23.5626 44.499 26.5569 43.9883L96.1331 32.1204ZM114.014 29.0702C115.764 30.1207 117.063 31.8975 117.433 34.0666C117.803 36.2357 117.166 38.3427 115.864 39.9136L106.557 41.5012C104.808 40.4507 103.509 38.6739 103.139 36.5048C102.769 34.3357 103.405 32.2287 104.707 30.6578L114.014 29.0702ZM150.763 22.8019C153.757 22.2911 156.599 24.3044 157.109 27.2988C157.62 30.2931 155.607 33.1345 152.613 33.6453L124.438 38.451C124.839 36.662 124.907 34.7668 124.579 32.8476C124.252 30.9283 123.56 29.1627 122.589 27.6077L150.763 22.8019Z" fill="white"/>
</g>
<path d="M96.1331 32.1204C95.7322 33.9094 95.6648 35.8046 95.9922 37.7238C96.3196 39.6431 97.0114 41.4087 97.9827 42.9637L28.4066 54.8317C25.4122 55.3424 22.5708 53.3291 22.0601 50.3348C21.5493 47.3405 23.5626 44.499 26.5569 43.9883L96.1331 32.1204ZM114.014 29.0702C115.764 30.1207 117.063 31.8975 117.433 34.0666C117.803 36.2357 117.166 38.3427 115.864 39.9136L106.557 41.5012C104.808 40.4507 103.509 38.6739 103.139 36.5048C102.769 34.3357 103.405 32.2287 104.707 30.6578L114.014 29.0702ZM150.763 22.8019C153.757 22.2911 156.599 24.3044 157.109 27.2988C157.62 30.2931 155.607 33.1345 152.613 33.6453L124.438 38.451C124.839 36.662 124.907 34.7668 124.579 32.8476C124.252 30.9283 123.56 29.1627 122.589 27.6077L150.763 22.8019Z" fill="white"/>
<path d="M104.281 77.3946C111.631 76.1409 118.605 81.0827 119.859 88.4324C121.112 95.7821 116.171 102.756 108.821 104.01C101.471 105.264 94.4968 100.322 93.2431 92.9723C91.9894 85.6227 96.9312 78.6482 104.281 77.3946ZM105.122 82.3234C100.494 83.1127 97.3826 87.504 98.1719 92.1316C98.9613 96.7592 103.353 99.8707 107.98 99.0813C112.608 98.292 115.719 93.9007 114.93 89.2731C114.141 84.6455 109.749 81.534 105.122 82.3234Z" fill="#FFFCFC"/>
<path d="M92.3982 87.5372C91.9974 89.3263 91.93 91.2214 92.2574 93.1407C92.5848 95.0599 93.2766 96.8255 94.2478 98.3806L37.4866 108.063C34.4923 108.573 31.6509 106.56 31.1401 103.566C30.6294 100.571 32.6427 97.73 35.637 97.2192L92.3982 87.5372ZM110.28 84.4871C112.029 85.5376 113.328 87.3144 113.698 89.4835C114.068 91.6526 113.431 93.7596 112.129 95.3305L102.822 96.918C101.073 95.8676 99.7742 94.0907 99.4042 91.9216C99.0342 89.7525 99.6706 87.6456 100.973 86.0746L110.28 84.4871ZM159.843 76.0328C162.837 75.5221 165.679 77.5354 166.19 80.5297C166.7 83.524 164.687 86.3655 161.693 86.8762L120.704 93.8679C121.104 92.0788 121.172 90.1837 120.844 88.2644C120.517 86.3452 119.825 84.5796 118.854 83.0245L159.843 76.0328Z" fill="url(#paint0_linear_2065_179)"/>
<path d="M56.9642 85.4658C49.6145 86.7194 42.6401 81.7776 41.3864 74.428C40.1328 67.0783 45.0745 60.1039 52.4242 58.8502C59.7739 57.5965 66.7483 62.5383 68.002 69.888C69.2557 77.2377 64.3139 84.2121 56.9642 85.4658ZM56.1235 80.537C60.751 79.7476 63.8625 75.3563 63.0732 70.7287C62.2838 66.1012 57.8925 62.9897 53.265 63.779C48.6374 64.5684 45.5259 68.9596 46.3152 73.5872C47.1046 78.2148 51.4959 81.3263 56.1235 80.537Z" fill="white"/>
<g filter="url(#filter3_f_2065_179)">
<path d="M67.8612 75.4916C68.262 73.7025 68.3294 71.8074 68.002 69.8881C67.6746 67.9689 66.9828 66.2033 66.0116 64.6482L155.303 49.4174C158.297 48.9066 161.139 50.9199 161.649 53.9142C162.16 56.9086 160.147 59.75 157.153 60.2607L67.8612 75.4916ZM50.9655 78.3736C49.2163 77.3231 47.9175 75.5463 47.5475 73.3772C47.1775 71.2081 47.8139 69.1011 49.1159 67.5302L58.4229 65.9427C60.1721 66.9931 61.471 68.7699 61.841 70.939C62.211 73.1082 61.5746 75.2151 60.2725 76.786L50.9655 78.3736ZM32.9465 81.4472C29.9522 81.9579 27.1108 79.9446 26.6 76.9503C26.0893 73.956 28.1026 71.1145 31.0969 70.6038L39.5558 69.1609C39.1549 70.95 39.0875 72.8451 39.4149 74.7644C39.7423 76.6836 40.4341 78.4492 41.4054 80.0043L32.9465 81.4472Z" fill="url(#paint1_linear_2065_179)"/>
</g>
<g filter="url(#filter4_d_2065_179)">
<path d="M68.8469 75.3235C69.2478 73.5344 69.3152 71.6392 68.9878 69.72C68.6604 67.8007 67.9686 66.0351 66.9973 64.4801L155.303 49.4174C158.297 48.9066 161.139 50.9199 161.649 53.9142C162.16 56.9086 160.147 59.75 157.153 60.2607L68.8469 75.3235ZM50.9655 78.3736C49.2163 77.3231 47.9175 75.5463 47.5475 73.3772C47.1775 71.2081 47.8139 69.1011 49.1159 67.5302L58.4229 65.9427C60.1721 66.9931 61.471 68.7699 61.841 70.939C62.211 73.1082 61.5746 75.2151 60.2725 76.786L50.9655 78.3736ZM32.9465 81.4472C29.9522 81.9579 27.1108 79.9446 26.6 76.9503C26.0893 73.956 28.1026 71.1145 31.0969 70.6038L40.5415 68.9928C40.1407 70.7819 40.0733 72.677 40.4007 74.5962C40.7281 76.5155 41.4199 78.2811 42.3911 79.8361L32.9465 81.4472Z" fill="url(#paint2_linear_2065_179)"/>
</g>
<g filter="url(#filter5_g_2065_179)">
<rect x="91" y="122.768" width="116" height="83" rx="10" transform="rotate(-34.539 91 122.768)" fill="#E6E6E6"/>
</g>
<path d="M130.811 170.026C130.811 170.026 133.497 136.007 143.665 129.615C153.834 123.224 184.354 133.173 184.354 133.173" stroke="black"/>
<path d="M175.855 130.525C175.855 130.525 177.775 110.387 185.344 106.391C192.913 102.396 209.473 106.173 209.473 106.173" stroke="black"/>
<path d="M135.93 142.225C135.93 142.225 137.08 143.859 140.375 141.592C143.67 139.324 143.361 137.11 143.361 137.11C143.361 137.11 147.377 136.772 149.848 135.071C152.32 133.37 151.314 131.028 151.314 131.028C151.314 131.028 155.331 130.691 157.262 129.969C159.193 129.247 158.343 128.011 158.343 128.011" stroke="black"/>
<path d="M178.834 116.335C178.834 116.335 180.637 116.308 181.872 115.458C183.108 114.607 183.493 112.521 183.493 112.521C183.493 112.521 185.167 113.19 186.815 112.056C188.462 110.922 189.591 108.375 189.591 108.375C189.591 108.375 192.169 108.37 194.229 106.953C196.288 105.536 196.053 104.535 196.053 104.535" stroke="black"/>
<circle cx="189.068" cy="86.226" r="8" transform="rotate(-34.539 189.068 86.226)" fill="black" stroke="black"/>
<defs>
<filter id="filter0_d_2065_179" x="2.49463" y="1.5376" width="182.278" height="130.885" filterUnits="userSpaceOnUse" color-interpolation-filters="sRGB">
<feFlood flood-opacity="0" result="BackgroundImageFix"/>
<feColorMatrix in="SourceAlpha" type="matrix" values="0 0 0 0 0 0 0 0 0 0 0 0 0 0 0 0 0 0 127 0" result="hardAlpha"/>
<feOffset dy="4"/>
<feGaussianBlur stdDeviation="2"/>
<feComposite in2="hardAlpha" operator="out"/>
<feColorMatrix type="matrix" values="0 0 0 0 0 0 0 0 0 0 0 0 0 0 0 0 0 0 0.25 0"/>
<feBlend mode="normal" in2="BackgroundImageFix" result="effect1_dropShadow_2065_179"/>
<feBlend mode="normal" in="SourceGraphic" in2="effect1_dropShadow_2065_179" result="shape"/>
</filter>
<filter id="filter1_d_2065_179" x="0.0419922" y="4.99951" width="182.278" height="130.885" filterUnits="userSpaceOnUse" color-interpolation-filters="sRGB">
<feFlood flood-opacity="0" result="BackgroundImageFix"/>
<feColorMatrix in="SourceAlpha" type="matrix" values="0 0 0 0 0 0 0 0 0 0 0 0 0 0 0 0 0 0 127 0" result="hardAlpha"/>
<feOffset dy="4"/>
<feGaussianBlur stdDeviation="2"/>
<feComposite in2="hardAlpha" operator="out"/>
<feColorMatrix type="matrix" values="0 0 0 0 0 0 0 0 0 0 0 0 0 0 0 0 0 0 0.25 0"/>
<feBlend mode="normal" in2="BackgroundImageFix" result="effect1_dropShadow_2065_179"/>
<feBlend mode="normal" in="SourceGraphic" in2="effect1_dropShadow_2065_179" result="shape"/>
</filter>
<filter id="filter2_f_2065_179" x="17.981" y="18.7227" width="143.208" height="40.188" filterUnits="userSpaceOnUse" color-interpolation-filters="sRGB">
<feFlood flood-opacity="0" result="BackgroundImageFix"/>
<feBlend mode="normal" in="SourceGraphic" in2="BackgroundImageFix" result="shape"/>
<feGaussianBlur stdDeviation="2" result="effect1_foregroundBlur_2065_179"/>
</filter>
<filter id="filter3_f_2065_179" x="22.521" y="45.3384" width="143.208" height="40.188" filterUnits="userSpaceOnUse" color-interpolation-filters="sRGB">
<feFlood flood-opacity="0" result="BackgroundImageFix"/>
<feBlend mode="normal" in="SourceGraphic" in2="BackgroundImageFix" result="shape"/>
<feGaussianBlur stdDeviation="2" result="effect1_foregroundBlur_2065_179"/>
</filter>
<filter id="filter4_d_2065_179" x="22.521" y="49.3384" width="143.208" height="40.188" filterUnits="userSpaceOnUse" color-interpolation-filters="sRGB">
<feFlood flood-opacity="0" result="BackgroundImageFix"/>
<feColorMatrix in="SourceAlpha" type="matrix" values="0 0 0 0 0 0 0 0 0 0 0 0 0 0 0 0 0 0 127 0" result="hardAlpha"/>
<feOffset dy="4"/>
<feGaussianBlur stdDeviation="2"/>
<feComposite in2="hardAlpha" operator="out"/>
<feColorMatrix type="matrix" values="0 0 0 0 0 0 0 0 0 0 0 0 0 0 0 0 0 0 0.25 0"/>
<feBlend mode="normal" in2="BackgroundImageFix" result="effect1_dropShadow_2065_179"/>
<feBlend mode="normal" in="SourceGraphic" in2="effect1_dropShadow_2065_179" result="shape"/>
</filter>
<filter id="filter5_g_2065_179" x="90.2063" y="56.2058" width="144.2" height="135.727" filterUnits="userSpaceOnUse" color-interpolation-filters="sRGB">
<feFlood flood-opacity="0" result="BackgroundImageFix"/>
<feBlend mode="normal" in="SourceGraphic" in2="BackgroundImageFix" result="shape"/>
<feTurbulence type="fractalNoise" baseFrequency="1.4285714626312256 1.4285714626312256" numOctaves="3" seed="9279" />
<feDisplacementMap in="shape" scale="9.3999996185302734" xChannelSelector="R" yChannelSelector="G" result="displacedImage" width="100%" height="100%" />
<feMerge result="effect1_texture_2065_179">
<feMergeNode in="displacedImage"/>
</feMerge>
</filter>
<linearGradient id="paint0_linear_2065_179" x1="31.1401" y1="103.566" x2="166.19" y2="80.5297" gradientUnits="userSpaceOnUse">
<stop stop-color="#A5FF69"/>
<stop offset="0.403901" stop-color="white"/>
<stop offset="0.596213" stop-color="white"/>
<stop offset="0.976028" stop-color="#E68AFF"/>
</linearGradient>
<linearGradient id="paint1_linear_2065_179" x1="161.649" y1="53.9142" x2="26.6" y2="76.9503" gradientUnits="userSpaceOnUse">
<stop stop-color="#FFDD00"/>
<stop offset="0.403303" stop-color="white"/>
<stop offset="0.603573" stop-color="white"/>
<stop offset="1" stop-color="#539DFF"/>
</linearGradient>
<linearGradient id="paint2_linear_2065_179" x1="161.649" y1="53.9142" x2="26.6" y2="76.9503" gradientUnits="userSpaceOnUse">
<stop stop-color="#FFDD00"/>
<stop offset="0.403303" stop-color="white"/>
<stop offset="0.603573" stop-color="white"/>
<stop offset="1" stop-color="#539DFF"/>
</linearGradient>
</defs>
</svg>
