<svg width="178" height="126" viewBox="0 0 178 126" fill="none" xmlns="http://www.w3.org/2000/svg">
<rect x="0.303043" y="27.5527" width="162.358" height="99.5" rx="9.75" transform="rotate(-9.65695 0.303043 27.5527)" fill="#F8F8F8" stroke="#D2D2D2" stroke-width="0.5"/>
<path d="M102.331 19.0874C109.681 17.8367 116.653 22.7813 117.904 30.1315C119.155 37.4817 114.21 44.4541 106.86 45.7048C99.5097 46.9556 92.5373 42.0109 91.2866 34.6608C90.0359 27.3106 94.9805 20.3382 102.331 19.0874ZM103.169 24.0166C98.5415 24.8041 95.4282 29.1941 96.2157 33.822C97.0032 38.4499 101.393 41.5632 106.021 40.7757C110.649 39.9882 113.762 35.5982 112.975 30.9703C112.187 26.3424 107.797 23.2291 103.169 24.0166Z" fill="#D2D2D2"/>
<g filter="url(#filter0_f_2079_98)">
<path d="M90.4439 29.2253C90.0423 31.0142 89.9742 32.9093 90.3008 34.8287C90.6274 36.7481 91.3185 38.514 92.2891 40.0694L22.7082 51.9093C19.7137 52.4188 16.8731 50.4044 16.3635 47.4099C15.854 44.4153 17.8685 41.5747 20.863 41.0652L90.4439 29.2253ZM108.326 26.1824C110.075 27.2336 111.373 29.0109 111.743 31.1802C112.112 33.3494 111.474 35.4561 110.172 37.0265L100.864 38.6103C99.1153 37.5591 97.8172 35.7818 97.448 33.6125C97.0789 31.4433 97.7162 29.3366 99.0189 27.7662L108.326 26.1824ZM145.078 19.9288C148.072 19.4193 150.913 21.4338 151.422 24.4283C151.932 27.4228 149.917 30.2634 146.923 30.773L118.747 35.5674C119.148 33.7785 119.216 31.8834 118.89 29.964C118.563 28.0446 117.872 26.2787 116.901 24.7233L145.078 19.9288Z" fill="white"/>
</g>
<path d="M90.4439 29.2253C90.0423 31.0142 89.9742 32.9093 90.3008 34.8287C90.6274 36.7481 91.3185 38.514 92.2891 40.0694L22.7082 51.9093C19.7137 52.4188 16.8731 50.4044 16.3635 47.4099C15.854 44.4153 17.8685 41.5747 20.863 41.0652L90.4439 29.2253ZM108.326 26.1824C110.075 27.2336 111.373 29.0109 111.743 31.1802C112.112 33.3494 111.474 35.4561 110.172 37.0265L100.864 38.6103C99.1153 37.5591 97.8172 35.7818 97.448 33.6125C97.0789 31.4433 97.7162 29.3366 99.0189 27.7662L108.326 26.1824ZM145.078 19.9288C148.072 19.4193 150.913 21.4338 151.422 24.4283C151.932 27.4228 149.917 30.2634 146.923 30.773L118.747 35.5674C119.148 33.7785 119.216 31.8834 118.89 29.964C118.563 28.0446 117.872 26.2787 116.901 24.7233L145.078 19.9288Z" fill="#D2D2D2" fill-opacity="0.5"/>
<path d="M98.5738 74.503C105.924 73.2523 112.896 78.1969 114.147 85.5471C115.398 92.8973 110.453 99.8697 103.103 101.12C95.7529 102.371 88.7805 97.4265 87.5297 90.0763C86.279 82.7261 91.2236 75.7537 98.5738 74.503ZM99.4126 79.4321C94.7847 80.2196 91.6714 84.6096 92.4589 89.2375C93.2464 93.8654 97.6364 96.9787 102.264 96.1912C106.892 95.4037 110.005 91.0137 109.218 86.3858C108.431 81.7579 104.04 78.6446 99.4126 79.4321Z" fill="#D2D2D2"/>
<path d="M86.6867 84.6409C86.2851 86.4298 86.217 88.3249 86.5436 90.2443C86.8702 92.1637 87.5613 93.9296 88.5319 95.485L31.7668 105.144C28.7723 105.654 25.9317 103.639 25.4221 100.645C24.9126 97.6502 26.9271 94.8096 29.9216 94.3L86.6867 84.6409ZM104.569 81.598C106.318 82.6491 107.616 84.4265 107.985 86.5958C108.354 88.765 107.717 90.8717 106.415 92.4421L97.1069 94.0259C95.3581 92.9747 94.06 91.1974 93.6908 89.0281C93.3217 86.8589 93.959 84.7522 95.2617 83.1818L104.569 81.598ZM154.136 73.1637C157.131 72.6542 159.971 74.6686 160.481 77.6631C160.99 80.6577 158.976 83.4983 155.981 84.0078L114.99 90.983C115.391 89.1941 115.459 87.299 115.133 85.3796C114.806 83.4602 114.115 81.6943 113.144 80.1389L154.136 73.1637Z" fill="url(#paint0_linear_2079_98)"/>
<path d="M51.2538 82.5546C43.9036 83.8054 36.9312 78.8607 35.6805 71.5106C34.4298 64.1604 39.3744 57.188 46.7246 55.9372C54.0748 54.6865 61.0472 59.6311 62.2979 66.9813C63.5486 74.3315 58.604 81.3039 51.2538 82.5546ZM50.4151 77.6255C55.043 76.838 58.1562 72.448 57.3687 67.8201C56.5813 63.1922 52.1912 60.0789 47.5633 60.8664C42.9354 61.6539 39.8222 66.0439 40.6096 70.6718C41.3971 75.2997 45.7872 78.413 50.4151 77.6255Z" fill="#D3D3D3"/>
<g filter="url(#filter1_f_2079_98)">
<path d="M62.1549 72.5848C62.5565 70.7958 62.6247 68.9007 62.2981 66.9814C61.9715 65.062 61.2803 63.2961 60.3097 61.7406L149.607 46.5458C152.602 46.0362 155.442 48.0507 155.952 51.0452C156.461 54.0397 154.447 56.8804 151.452 57.3899L62.1549 72.5848ZM45.2582 75.4599C43.5094 74.4088 42.2112 72.6314 41.8421 70.4621C41.473 68.2929 42.1102 66.1862 43.4129 64.6158L52.7206 63.032C54.4694 64.0832 55.7675 65.8605 56.1366 68.0298C56.5057 70.199 55.8685 72.3057 54.5658 73.8761L45.2582 75.4599ZM27.2379 78.5263C24.2434 79.0358 21.4028 77.0213 20.8932 74.0268C20.3837 71.0323 22.3981 68.1917 25.3927 67.6821L33.8521 66.2427C33.4506 68.0316 33.3824 69.9267 33.709 71.8461C34.0356 73.7655 34.7267 75.5314 35.6974 77.0868L27.2379 78.5263Z" fill="url(#paint1_linear_2079_98)"/>
</g>
<path d="M63.1408 72.417C63.5423 70.6281 63.6105 68.733 63.2839 66.8136C62.9573 64.8942 62.2662 63.1283 61.2955 61.5729L149.607 46.5458C152.602 46.0362 155.442 48.0507 155.952 51.0452C156.461 54.0397 154.447 56.8804 151.452 57.3899L63.1408 72.417ZM45.2582 75.4599C43.5094 74.4088 42.2112 72.6314 41.8421 70.4621C41.473 68.2929 42.1102 66.1862 43.4129 64.6158L52.7206 63.032C54.4694 64.0832 55.7675 65.8605 56.1366 68.0298C56.5057 70.199 55.8685 72.3057 54.5658 73.8761L45.2582 75.4599ZM27.2379 78.5263C24.2434 79.0358 21.4028 77.0213 20.8932 74.0268C20.3837 71.0323 22.3981 68.1917 25.3927 67.6821L34.8379 66.0749C34.4364 67.8638 34.3682 69.7589 34.6948 71.6783C35.0214 73.5977 35.7125 75.3636 36.6832 76.919L27.2379 78.5263Z" fill="url(#paint2_linear_2079_98)"/>
<defs>
<filter id="filter0_f_2079_98" x="12.2847" y="15.8501" width="143.216" height="40.1382" filterUnits="userSpaceOnUse" color-interpolation-filters="sRGB">
<feFlood flood-opacity="0" result="BackgroundImageFix"/>
<feBlend mode="normal" in="SourceGraphic" in2="BackgroundImageFix" result="shape"/>
<feGaussianBlur stdDeviation="2" result="effect1_foregroundBlur_2079_98"/>
</filter>
<filter id="filter1_f_2079_98" x="16.8145" y="42.4668" width="143.216" height="40.1382" filterUnits="userSpaceOnUse" color-interpolation-filters="sRGB">
<feFlood flood-opacity="0" result="BackgroundImageFix"/>
<feBlend mode="normal" in="SourceGraphic" in2="BackgroundImageFix" result="shape"/>
<feGaussianBlur stdDeviation="2" result="effect1_foregroundBlur_2079_98"/>
</filter>
<linearGradient id="paint0_linear_2079_98" x1="25.4221" y1="100.645" x2="160.481" y2="77.6631" gradientUnits="userSpaceOnUse">
<stop stop-color="#A5FF69"/>
<stop offset="0.403901" stop-color="#D5D5D5" stop-opacity="0.4"/>
<stop offset="0.596213" stop-color="#D2D2D2" stop-opacity="0.4"/>
<stop offset="0.976028" stop-color="#E68AFF"/>
</linearGradient>
<linearGradient id="paint1_linear_2079_98" x1="155.952" y1="51.0452" x2="20.8932" y2="74.0268" gradientUnits="userSpaceOnUse">
<stop stop-color="#FFDD00"/>
<stop offset="0.403303" stop-color="white"/>
<stop offset="0.603573" stop-color="white"/>
<stop offset="1" stop-color="#539DFF"/>
</linearGradient>
<linearGradient id="paint2_linear_2079_98" x1="155.952" y1="51.0452" x2="20.8932" y2="74.0268" gradientUnits="userSpaceOnUse">
<stop stop-color="#FFDD00"/>
<stop offset="0.403303" stop-color="#D2D2D2" stop-opacity="0.4"/>
<stop offset="0.603573" stop-color="#D2D2D2" stop-opacity="0.4"/>
<stop offset="1" stop-color="#539DFF"/>
</linearGradient>
</defs>
</svg>
