<svg width="892" height="892" viewBox="0 0 892 892" fill="none" xmlns="http://www.w3.org/2000/svg">
<path d="M347 26C348.501 31.6078 349.953 36.6509 352 42L353.012 45.0352C356.534 54.7641 363.138 65.391 370.671 72.5996C372 74.0002 372 74 372 76H374V78H376V80L377.672 80.7422C380.475 82.2565 382.764 84.132 385.25 86.125C395.574 94.0936 407.49 99.4446 420 103L422.129 103.645C443.411 109.621 470.165 106.612 489.668 96.1494C491.279 95.2418 492.871 94.2995 494.461 93.3555C497 92 497 92 500 92V90C501.547 88.8789 501.547 88.8789 503.75 87.5625C512.558 81.8762 520.183 74.7248 526 66H528L530 60H532C532.13 59.4139 532.26 58.8275 532.394 58.2236C533.157 55.4256 534.438 52.9562 535.729 50.3691C544.073 33.5558 545.37 19.5623 547 0H891C891.02 103.619 891.02 103.619 891.025 135.669C891.026 136.812 891.026 137.955 891.026 139.133C891.033 177.591 891.038 216.049 891.042 254.507C891.042 255.761 891.043 257.016 891.043 258.309C891.046 285.569 891.048 312.83 891.051 340.091C891.052 352.787 891.053 365.484 891.055 378.18C891.055 380.195 891.055 382.21 891.056 384.226C891.059 415.271 891.062 446.316 891.068 477.361C891.068 478.029 891.069 478.697 891.069 479.385C891.072 490.153 891.074 500.922 891.076 511.69C891.086 556.694 891.092 601.698 891.094 646.701C891.094 652.955 891.094 659.209 891.095 665.463C891.095 666.694 891.095 667.925 891.095 669.193C891.096 689.051 891.101 708.908 891.106 728.766C891.112 748.703 891.115 768.641 891.113 788.578C891.113 800.44 891.115 812.301 891.121 824.163C891.125 832.071 891.125 839.98 891.122 847.888C891.121 852.404 891.121 856.92 891.125 861.436C891.129 865.534 891.128 869.633 891.124 873.731C891.123 875.214 891.124 876.697 891.127 878.18C891.131 880.176 891.128 882.173 891.124 884.169C891.124 885.279 891.125 886.39 891.125 887.534C891 890 891 890 890 891C888.063 891.099 886.122 891.125 884.183 891.125C882.271 891.129 882.27 891.129 880.319 891.133C878.883 891.131 877.448 891.128 876.012 891.126C874.497 891.127 872.981 891.128 871.466 891.13C867.263 891.134 863.06 891.132 858.857 891.129C854.3 891.126 849.743 891.129 845.186 891.132C837.185 891.135 829.185 891.135 821.185 891.133C809.288 891.129 797.392 891.131 785.496 891.134C764.255 891.139 743.013 891.139 721.771 891.136C703.183 891.133 684.595 891.133 666.007 891.134C664.776 891.134 663.545 891.134 662.276 891.134C657.281 891.134 652.285 891.134 647.289 891.135C601.051 891.138 554.812 891.135 508.574 891.13C466.188 891.125 423.801 891.126 381.415 891.131C334.595 891.136 287.775 891.138 240.955 891.135C235.968 891.134 230.98 891.134 225.993 891.134C224.765 891.134 223.537 891.134 222.272 891.134C203.691 891.133 185.11 891.134 166.529 891.137C145.411 891.14 124.293 891.138 103.175 891.133C91.3419 891.13 79.5087 891.13 67.6758 891.134C59.7871 891.136 51.8984 891.134 44.0098 891.13C39.5049 891.127 35 891.127 30.4951 891.131C26.4063 891.134 22.3173 891.132 18.2285 891.127C16.7497 891.126 15.2708 891.127 13.792 891.13C11.8004 891.133 9.80798 891.129 7.81641 891.125C6.70884 891.125 5.60109 891.125 4.45996 891.125C1.99995 891 1.99993 891 1 890C0.90184 888.058 0.875703 886.113 0.875977 884.169C0.87373 882.891 0.871456 881.613 0.869141 880.297C0.871707 878.857 0.874216 877.417 0.876953 875.978C0.876214 874.459 0.874627 872.94 0.873047 871.421C0.869957 867.208 0.873775 862.995 0.87793 858.782C0.881346 854.214 0.878597 849.645 0.876953 845.076C0.874873 837.056 0.876802 829.036 0.880859 821.017C0.886876 809.091 0.886622 797.166 0.885742 785.241C0.884426 765.184 0.88855 745.127 0.894531 725.07C0.900441 705.201 0.904185 685.332 0.905273 665.463C0.905342 664.229 0.905203 662.996 0.905273 661.725C0.905612 655.459 0.905963 649.194 0.90625 642.929C0.908352 598.511 0.915346 554.093 0.924805 509.676C0.927096 498.904 0.929433 488.133 0.931641 477.361C0.931778 476.693 0.9315 476.025 0.931641 475.337C0.937982 444.294 0.941285 413.251 0.944336 382.209C0.944534 380.194 0.945113 378.18 0.945312 376.165C0.946632 362.813 0.947974 349.461 0.949219 336.109C0.951755 308.909 0.955014 281.708 0.958008 254.507C0.958145 253.256 0.957866 252.005 0.958008 250.717C0.962232 212.368 0.967989 174.018 0.974609 135.669C0.974797 134.58 0.974416 133.49 0.974609 132.368C0.982226 88.2454 0.991428 44.1227 1 0H344L347 26ZM208 480C210.426 492.617 212.685 505.099 215.572 517.578C218.245 528.971 220.737 540.39 223.065 551.857C225.489 563.814 228.025 575.733 230.75 587.625C232.503 595.272 234.239 602.902 235.625 610.625C236.477 615.409 237.478 620.119 238.628 624.838C240.908 634.136 242.964 643.465 244.874 652.845C247.324 664.895 249.822 676.931 252.436 688.946C255.367 702.411 258.244 715.886 261.062 729.375C263.54 741.233 266.103 753.067 268.812 764.875C269.903 769.578 270.962 774.284 272 779L275 795H335C338.368 780.966 341.705 767.028 344.677 752.921C345.721 747.927 346.77 742.933 347.825 737.941C348.048 736.888 348.264 735.866 348.48 734.844C350.489 725.342 352.566 715.857 354.694 706.382C357.439 694.173 360.071 681.95 362.562 669.688C364.487 660.208 366.475 650.753 368.624 641.321C371.335 629.493 373.956 617.655 376.407 605.77C376.566 604.998 376.721 604.249 376.875 603.5C377.321 601.344 377.767 599.188 378.209 597.031C378.348 596.351 378.482 595.691 378.617 595.031C379.364 591.377 380.038 587.75 380.587 584.061C380.796 582.515 380.795 582.515 381 581H383C383 585 383 585 383.516 587.391C385.158 593.785 386.393 600.159 387.438 606.675C388.468 613.141 389.36 619.654 390.934 626.016C393.286 634.877 395.169 643.742 396.875 652.75C398.596 661.841 400.379 670.907 402.357 679.946C404.582 690.058 406.617 700.15 408.25 710.375C408.406 711.392 408.557 712.379 408.708 713.365C408.855 714.311 408.998 715.23 409.141 716.148C409.383 717.773 409.671 719.391 410 721C411.02 724.045 411.998 726.993 412.698 730.13C413.018 731.826 413.018 731.826 413.332 733.488C413.578 734.778 413.817 736.03 414.056 737.282C414.569 740.013 415.084 742.744 415.606 745.474C415.876 746.881 416.145 748.288 416.414 749.695C417.611 755.975 418.82 762.252 420.06 768.522C420.273 769.599 420.48 770.643 420.688 771.688C421.636 776.535 422.603 781.367 423.771 786.167C424.044 787.248 424.308 788.297 424.573 789.347C425.048 791.231 425.523 793.116 426 795C432.856 795.021 439.712 795.038 446.568 795.049C450.06 795.054 453.553 795.058 457.045 795.068C460.469 795.079 463.894 795.09 467.318 795.094C468.643 795.095 469.929 795.096 471.215 795.098C473.148 795.106 473.149 795.106 475.044 795.113C476.821 795.113 476.821 795.113 478.562 795.113C480.375 795.117 482.19 795.094 484 795C485.114 793.886 485.114 793.886 486.383 788.555C486.661 787.361 486.661 787.361 486.934 786.191C487.55 783.589 488.165 780.986 488.775 778.383C489.219 776.49 489.665 774.598 490.111 772.706C491.044 768.76 491.978 764.815 492.908 760.868C494.212 755.335 495.52 749.802 496.839 744.272C497.04 743.431 497.235 742.614 497.43 741.797C497.826 740.138 498.222 738.479 498.618 736.819C501.552 724.53 504.474 712.238 507.375 699.941C512.365 678.782 517.327 657.616 522.5 636.5C526.252 621.187 529.884 605.846 533.5 590.5C537.02 575.556 540.554 560.617 544.209 545.706C547.348 532.904 550.416 520.086 553.393 507.245C553.599 506.354 553.8 505.49 554 504.625C554.577 502.15 555.152 499.675 555.724 497.198C555.902 496.422 556.076 495.668 556.25 494.914C557.409 489.946 558.276 485.069 559 480H501C498.548 491.767 496.137 503.518 493.53 515.246C490.638 528.236 487.9 541.253 485.25 554.294C482.07 569.955 478.844 585.605 475.518 601.236C475.299 602.261 475.087 603.255 474.875 604.25C472.064 617.447 469.215 630.635 466.312 643.812C462.896 659.305 459.698 674.841 456.531 690.387C456.351 691.275 456.175 692.138 456 693H455C452.646 683.974 450.514 674.965 448.819 665.787C448.142 662.057 447.452 658.329 446.755 654.603C446.59 653.722 446.43 652.867 446.27 652.012C443.779 638.715 441.18 625.44 438.571 612.166C437.985 609.182 437.398 606.198 436.814 603.213C436.11 599.607 435.405 596.001 434.695 592.396C434.427 591.034 434.159 589.671 433.891 588.309C432.525 581.307 431.125 574.336 429.389 567.415C428.285 563.142 427.276 558.863 426.365 554.545C426.177 553.637 425.995 552.756 425.812 551.875C424.322 544.728 422.909 537.57 421.554 530.396C421.294 529.017 421.294 529.017 421.039 527.664C420.166 523.04 419.292 518.415 418.436 513.788C418.107 512.014 417.777 510.241 417.445 508.468C417.203 507.174 417.203 507.174 416.965 505.906C415.589 498.357 415.589 498.357 411 480H356C355 482 355 482 354.371 484.609C354.127 485.75 353.889 486.858 353.652 487.965C353.373 489.259 353.101 490.516 352.83 491.772C352.064 495.348 351.292 498.923 350.516 502.497C350.348 503.267 350.186 504.015 350.023 504.762C348.257 512.883 346.423 520.988 344.561 529.087C341.828 540.963 339.132 552.846 336.499 564.744C333.874 576.613 331.22 588.475 328.5 600.323C325.618 612.872 322.781 625.429 320 638C316.088 655.687 312.059 673.346 308 691C303.972 678.933 303.971 678.933 302.213 666.175C300.639 657.01 299.009 647.859 297.171 638.743C295.154 628.825 293.196 618.898 291.327 608.951C291.195 608.245 291.066 607.56 290.938 606.875C289.196 597.596 287.517 588.309 285.938 579C284.604 571.122 283.048 563.312 281.375 555.5C279.922 548.729 278.59 542.002 277.75 535.125C277.521 533.081 277.278 531.038 277 529C275.898 527.023 275.898 527.023 275.57 524.742C273.237 509.716 270.134 494.885 267 480H208ZM632.026 479.876C628.504 479.882 625.653 478.826 624.498 482.671C624.315 483.422 624.138 484.152 623.96 484.882C623.749 485.741 623.543 486.576 623.338 487.41C622.998 488.819 622.998 488.819 622.664 490.199C621.916 493.26 621.168 496.321 620.426 499.384C619.89 501.595 619.353 503.806 618.814 506.017C614.748 522.697 610.739 539.392 606.76 556.094C603.35 570.409 599.883 584.709 596.375 599C592.978 612.84 589.636 626.69 586.375 640.562C583.597 652.38 580.726 664.169 577.75 675.938C573.834 691.42 570.152 706.954 566.5 722.5C563.676 734.537 560.88 746.582 557.869 758.574C557.533 759.906 557.533 759.906 557.203 761.211C556.204 765.17 555.202 769.129 554.178 773.082C553.817 774.472 553.459 775.862 553.103 777.253C552.853 778.226 552.854 778.226 552.609 779.18C551.202 784.589 550.634 789.292 550 795H609C610.88 787.009 612.786 779.028 614.596 771.021C614.745 770.356 614.89 769.709 615.035 769.062C615.373 767.555 615.711 766.047 616.049 764.539C616.386 763.026 616.724 761.513 617.062 760C617.577 757.722 618.092 755.444 618.602 753.164C618.77 752.407 618.934 751.672 619.098 750.938C619.774 747.964 620.391 744.991 621 742L624 725H731C731 729 731 729.001 731.722 731.987C732.069 733.186 732.407 734.349 732.744 735.513C733.332 737.558 733.922 739.603 734.519 741.646C734.945 743.105 735.369 744.564 735.791 746.023C736.896 749.85 738.005 753.676 739.118 757.5C740.499 762.243 741.873 766.989 743.246 771.734C745.258 778.689 745.258 778.689 750 795H811C811 792 811 792 810.461 790.141C808.638 785.023 807.052 779.864 805.553 774.643C805.253 773.593 804.963 772.574 804.672 771.555C803.697 768.159 802.723 764.764 801.75 761.368C797.744 747.369 793.757 733.366 789.484 719.445C786.004 708.106 782.714 696.715 779.448 685.312C775.836 672.69 772.262 660.057 768.418 647.503C764.318 634.154 760.438 620.746 756.594 607.321C752.292 592.288 748.031 577.245 743.441 562.297C739.611 549.828 736.023 537.291 732.438 524.75C731.478 521.391 730.517 518.031 729.554 514.673C729.237 513.568 728.929 512.495 728.621 511.422C725.622 500.881 722.327 490.441 719 480C707.997 479.979 696.994 479.962 685.99 479.951C680.387 479.946 674.783 479.942 669.18 479.932C663.684 479.921 658.188 479.911 652.692 479.907C650.609 479.906 648.525 479.904 646.441 479.902C643.428 479.895 640.413 479.887 637.399 479.887C636.011 479.887 636.011 479.886 634.65 479.887C633.758 479.883 632.892 479.88 632.026 479.876ZM686 558C688.055 563.481 689.772 568.6 691.086 574.242C691.27 575.009 691.453 575.777 691.643 576.567C692.225 579.002 692.801 581.438 693.375 583.875C694.129 587.061 694.886 590.246 695.648 593.43C695.932 594.615 695.932 594.614 696.222 595.823C697.763 602.184 699.496 608.482 701.276 614.779C702.886 620.502 704.262 626.248 705.5 632.062C707.299 640.249 709.42 648.265 711.887 656.273C713.59 661.975 715 666.98 715 673H636C636.642 666.583 637.337 660.705 638.785 654.504C638.962 653.725 639.138 652.947 639.32 652.145C639.895 649.616 640.479 647.089 641.062 644.562C641.469 642.782 641.875 641.001 642.28 639.22C643.315 634.683 644.356 630.148 645.399 625.613C646.324 621.589 647.244 617.564 648.164 613.539C649.166 609.154 650.169 604.769 651.175 600.385C653.564 589.962 655.899 579.527 658.187 569.081C658.413 568.054 658.638 567.027 658.871 565.969C659.066 565.076 659.262 564.183 659.463 563.264C660 561 660 561 661 558H686Z" fill="white"/>
</svg>
