<svg width="108" height="138" viewBox="0 0 108 138" fill="none" xmlns="http://www.w3.org/2000/svg">
<path d="M57.854 0C85.4682 0 107.854 29.5492 107.854 66C107.854 102.451 85.4682 132 57.854 132C30.2398 132 7.854 102.451 7.854 66C7.854 29.5492 30.2398 0 57.854 0ZM57.354 22C38.8525 22 23.854 41.6995 23.854 66C23.854 90.3005 38.8525 110 57.354 110C75.8555 110 90.854 90.3005 90.854 66C90.854 41.6995 75.8555 22 57.354 22Z" fill="#0577DB"/>
<path d="M50 5.2002C77.6142 5.2002 100 34.7494 100 71.2002C100 107.651 77.6142 137.2 50 137.2C22.3858 137.2 0 107.651 0 71.2002C0 34.7494 22.3858 5.2002 50 5.2002ZM49.5 27.2002C30.9985 27.2002 16 46.8997 16 71.2002C16 95.5007 30.9985 115.2 49.5 115.2C68.0015 115.2 83 95.5007 83 71.2002C83 46.8997 68.0015 27.2002 49.5 27.2002Z" fill="#6CBBFB"/>
</svg>
