<svg width="77" height="145" viewBox="0 0 77 145" fill="none" xmlns="http://www.w3.org/2000/svg">
<rect width="10.4867" height="59.4521" transform="matrix(0.907693 0.419635 -0.425833 0.904802 63.8169 22.8945)" fill="url(#paint0_linear_2058_13)"/>
<rect width="8.06308" height="62.326" transform="matrix(0.846839 -0.531849 0.538666 0.842519 0.77002 30.2358)" fill="url(#paint1_linear_2058_13)"/>
<rect width="9.63798" height="80.6076" transform="matrix(0.981411 -0.191917 0.195243 0.980755 17.71 1.84961)" fill="url(#paint2_linear_2058_13)"/>
<rect width="9.63981" height="50.8356" transform="matrix(0.992146 0.125082 -0.127298 0.991864 40.3511 22.8945)" fill="url(#paint3_linear_2058_13)"/>
<mask id="path-5-inside-1_2058_13" fill="white">
<path d="M2.60988 85.9287C1.23641 76.8536 8.26251 68.6841 17.441 68.6841H59.2081C68.5059 68.6841 75.564 77.0559 73.9922 86.2199L63.91 145H11.55L2.60988 85.9287Z"/>
</mask>
<path d="M2.60988 85.9287C1.23641 76.8536 8.26251 68.6841 17.441 68.6841H59.2081C68.5059 68.6841 75.564 77.0559 73.9922 86.2199L63.91 145H11.55L2.60988 85.9287Z" fill="url(#paint4_linear_2058_13)"/>
<path d="M17.441 68.1841C17.441 68.5174 17.441 68.8507 17.441 69.1841C17.7279 68.8507 18.0147 68.6841 18.3016 68.6841C22.4388 68.6841 26.5759 68.7198 30.713 68.7866C40.2114 68.9398 49.7097 69.2564 59.2081 69.679C67.6004 69.8437 73.731 78.6002 71.6468 85.8176C67.113 105.21 62.3487 124.562 57.8723 143.964L63.91 138.874C58.318 138.556 52.726 138.26 47.1339 138C35.2726 137.447 23.4113 136.635 11.55 136.237L20.2142 143.689C19.7046 139.34 19.1391 135 18.4843 130.674C16.1591 115.31 12.6053 100.132 7.8229 85.1397C6.73926 82.5423 6.66737 79.2337 8.1527 76.0797C9.68304 72.7629 12.983 69.769 17.441 68.6841C13.0289 67.5327 7.56508 68.7109 3.51747 72.2827C-0.338014 75.5827 -2.82803 81.0337 -2.60313 86.7177C-2.73497 102.454 -1.63826 118.003 0.687009 133.367C1.34178 137.694 2.08587 142.007 2.88576 146.311L4.31559 154.005L11.55 153.763C23.4113 153.365 35.2726 152.552 47.1339 152C52.726 151.739 58.318 151.444 63.91 151.126L69.4056 150.813L69.9477 146.035C72.1928 126.251 74.1499 106.417 76.3375 86.6222C77.8231 76.3398 68.6671 66.9645 59.2081 67.6892C49.7097 68.1118 40.2114 68.4284 30.713 68.5816C26.5759 68.6483 22.4388 68.6841 18.3016 68.6841C18.0147 68.6841 17.7279 68.5174 17.441 68.1841ZM17.441 69.1841V68.1841V68.6841V69.1841Z" fill="#FAB005" mask="url(#path-5-inside-1_2058_13)"/>
<defs>
<linearGradient id="paint0_linear_2058_13" x1="5.24333" y1="0" x2="5.24333" y2="59.4521" gradientUnits="userSpaceOnUse">
<stop offset="0.528903" stop-color="#FAB005"/>
<stop offset="1" stop-color="#FFE792"/>
</linearGradient>
<linearGradient id="paint1_linear_2058_13" x1="4.03154" y1="0" x2="4.03154" y2="62.326" gradientUnits="userSpaceOnUse">
<stop offset="0.528903" stop-color="#FAB005"/>
<stop offset="1" stop-color="#FFE792"/>
</linearGradient>
<linearGradient id="paint2_linear_2058_13" x1="4.81899" y1="0" x2="4.81899" y2="80.6076" gradientUnits="userSpaceOnUse">
<stop offset="0.528903" stop-color="#FAB005"/>
<stop offset="1" stop-color="#FFE792"/>
</linearGradient>
<linearGradient id="paint3_linear_2058_13" x1="4.81991" y1="0" x2="4.81991" y2="50.8356" gradientUnits="userSpaceOnUse">
<stop offset="0.528903" stop-color="#FAB005"/>
<stop offset="1" stop-color="#FFE792"/>
</linearGradient>
<linearGradient id="paint4_linear_2058_13" x1="38.5" y1="68.6841" x2="38.5" y2="145" gradientUnits="userSpaceOnUse">
<stop stop-color="#FAB005"/>
<stop offset="0.9999" stop-color="#FFD43B"/>
</linearGradient>
</defs>
</svg>
