<svg width="100" height="89" viewBox="0 0 100 89" fill="none" xmlns="http://www.w3.org/2000/svg">
<mask id="path-1-inside-1_2060_76" fill="white">
<path d="M81.5 0L91 44.5L85.5 47.5L92 48.5L100 88.5H0L29.5 57.5L34.5 59.5V52L37 49.5L58 57.5L48.5 37L81.5 0Z"/>
</mask>
<path d="M81.5 0L91 44.5L85.5 47.5L92 48.5L100 88.5H0L29.5 57.5L34.5 59.5V52L37 49.5L58 57.5L48.5 37L81.5 0Z" fill="url(#paint0_linear_2060_76)"/>
<path d="M0 88C0 88.3333 0 88.6667 0 89C0.816177 92 1.63235 93.5 2.44853 93.5C7.5156 93.5 12.5827 93.4484 17.6497 93.3618C44.1305 92.9091 70.6113 91.5 97.0921 91.5C98.0614 91.5 99.0307 91.5003 100 91.5009L103.659 91.5032L102.943 87.9115C102.943 87.9115 102.943 87.9115 102.943 87.9115C102.943 87.9115 102.943 87.9115 102.943 87.9115C100.284 74.5765 97.6839 61.2299 95.1207 47.8759L94.7058 45.714L92.4839 45.3545C90.3198 45.0044 88.1559 44.6532 85.9921 44.3012L87.0498 50.3412C88.8917 49.357 90.7341 48.3736 92.5768 47.3907L94.7166 46.2494L94.2202 43.8125C91.1925 28.9495 88.2028 14.0784 85.2228 -0.794748L83.7366 -8.11352L78.6591 -2.53377C67.504 9.6612 56.3402 21.8484 45.196 34.0531L43.2703 36.1621L44.4831 38.8615C47.5699 45.7319 50.6616 52.5999 53.7614 59.4642L59.6631 53.1345C52.6891 50.3994 45.712 47.6727 38.7304 44.9576L35.828 43.8288L33.5628 46.0628C32.7237 46.8904 31.8849 47.7182 31.0462 48.5462L29.6287 49.9457L29.6156 52C29.5996 54.5 29.5851 57 29.5722 59.5L36.3301 54.9246C34.6669 54.2494 33.0034 53.5748 31.3396 52.9011L28.2494 51.6498L25.9118 54.0855C20.9787 59.2257 16.0553 64.3752 11.144 69.5363C10.2777 70.4466 9.44502 71.3891 8.646 72.3635C4.9055 76.9254 1.90276 82.1893 -0.362208 88.1553C-0.120736 88.3851 0.120736 88.6149 0.362208 88.8447C6.20863 86.2868 11.3173 83.0269 15.6882 79.065C16.6218 78.2186 17.5218 77.3403 18.3882 76.4299C23.2995 71.2689 28.1987 66.0964 33.0882 60.9145L27.6604 62.0989C29.3299 62.7585 30.9997 63.4173 32.6699 64.0754L39.4634 66.7542L39.4278 59.5C39.4149 57 39.4004 54.5 39.3844 52L37.9538 55.4538C38.7818 54.6151 39.6096 53.7763 40.4372 52.9372L35.2696 54.0424C42.288 56.6607 49.3109 59.2673 56.3369 61.8655L67.1179 65.8963L62.2386 55.5358C59.0051 48.7334 55.7635 41.9348 52.5169 35.1385L51.804 39.9469C62.6598 27.4849 73.496 15.0055 84.3409 2.53377L77.7772 0.794748C81.1305 15.5882 84.4742 30.3838 87.7798 45.1875L89.4232 41.6093C87.5993 42.6264 85.775 43.643 83.9502 44.6588L75.5534 49.2857L85.0079 50.6988C87.1774 51.0134 89.3468 51.329 91.5161 51.6455L88.8793 49.1241C91.6494 62.4368 94.3823 75.7569 97.0574 89.0885C97.0574 89.0885 97.0574 89.0885 97.0574 89.0885C97.0574 89.0885 97.0574 89.0885 97.0574 89.0885L100 85.4991C99.0307 85.4997 98.0614 85.5 97.0921 85.5C70.6113 85.5 44.1305 84.0909 17.6497 83.6382C12.5827 83.5516 7.5156 83.5 2.44853 83.5C1.63235 83.5 0.816177 85 0 88ZM0 89V88L0.362208 88.8447L-0.362208 88.1553L-0.611208 88.2643L0 89Z" fill="#228BE6" mask="url(#path-1-inside-1_2060_76)"/>
<mask id="path-3-inside-2_2060_76" fill="white">
<path d="M23.0996 15L56.4501 56.3309L21.9569 36.4696L23.0996 15Z"/>
</mask>
<path d="M23.0996 15L56.4501 56.3309L21.9569 36.4696L23.0996 15Z" fill="#6FBDFC"/>
<path d="M23.4887 14.686C23.2293 14.8953 22.9699 15.1047 22.7105 15.314C23.7929 16.8908 24.8803 18.4635 25.9729 20.0321C35.0236 33.0261 44.4246 45.7374 54.1758 58.166L57.9083 53.7985C54.6498 51.8625 51.3785 49.9489 48.0942 48.0578C39.8808 43.3285 31.5325 38.8333 23.0494 34.5723L24.1432 36.586C24.1233 31.3177 24.0202 26.0449 23.8341 20.7677C23.7666 18.8546 23.6882 16.9409 23.5989 15.0266C23.266 15.0089 22.9332 14.9911 22.6003 14.9734C22.3083 16.8674 22.0272 18.762 21.757 20.6572C21.0118 25.8848 20.3497 31.1168 19.7706 36.3532L19.7762 37.8203L20.8644 38.3669C28.8082 43.5646 36.8868 48.5281 45.1002 53.2574C48.3845 55.1485 51.6817 57.0172 54.9919 58.8634L58.7243 54.4959C48.6368 42.3385 38.1991 30.4638 27.411 18.8718C26.1087 17.4724 24.8012 16.0771 23.4887 14.686ZM22.7105 15.314L23.4887 14.686L22.5934 13.7371L22.6003 14.9734L23.5989 15.0266L22.7105 15.314Z" fill="#228BE6" mask="url(#path-3-inside-2_2060_76)"/>
<defs>
<linearGradient id="paint0_linear_2060_76" x1="78" y1="21" x2="50" y2="88.5" gradientUnits="userSpaceOnUse">
<stop stop-color="#006FCF"/>
<stop offset="1" stop-color="#6CBBFB"/>
</linearGradient>
</defs>
</svg>
