<svg width="101" height="111" viewBox="0 0 101 111" fill="none" xmlns="http://www.w3.org/2000/svg" xmlns:xlink="http://www.w3.org/1999/xlink">
<path d="M100.15 57L39.5431 67H100.15V111H0.149555C0.145433 110.982 -1.34135 104.492 5.14955 99C8.49352 96.1705 33.5404 91.8868 57.0744 88.3926L0.149555 79V41.8945L100.15 28V57Z" fill="url(#pattern0_2058_47)"/>
<path d="M65.7685 7.62534L62.9925 22.5928L41.0001 32.1531L65.7685 7.62534Z" fill="#FA5252"/>
<path d="M37.3099 7.85029L45.9626 11.5364L38.648 31.6199L37.3099 7.85029Z" fill="#FA5252"/>
<path d="M0.000100609 9.66976L9.30769 4.529L34.9124 31.5131L0.000100609 9.66976Z" fill="#FA5252"/>
<defs>
<pattern id="pattern0_2058_47" patternUnits="userSpaceOnUse" viewBox="20 -213 100 190" width="99.850641504109987%" height="228.91566265060243%" y="-107" patternContentUnits="objectBoundingBox">
<rect x="102.879" y="-183" width="13.6406" height="77.7777" transform="rotate(25.0069 102.879 -183)" fill="url(#paint0_linear_2058_47)"/>
<rect x="21" y="-173.381" width="10.4982" height="81.4586" transform="rotate(-32.3612 21 -173.381)" fill="url(#paint1_linear_2058_47)"/>
<rect x="43" y="-210.576" width="12.521" height="105.588" transform="rotate(-11.1614 43 -210.576)" fill="url(#paint2_linear_2058_47)"/>
<rect x="72.4043" y="-183" width="12.521" height="66.6027" transform="rotate(7.24921 72.4043 -183)" fill="url(#paint3_linear_2058_47)"/>
<mask id="path-6-inside-1_2058_47" fill="white">
<path d="M22.5838 -105.775C21.2234 -114.844 28.2473 -123 37.4178 -123H102.235C111.524 -123 118.579 -114.643 117.023 -105.486L103 -23H35L22.5838 -105.775Z"/>
</mask>
<path d="M22.5838 -105.775C21.2234 -114.844 28.2473 -123 37.4178 -123H102.235C111.524 -123 118.579 -114.643 117.023 -105.486L103 -23H35L22.5838 -105.775Z" fill="url(#paint4_linear_2058_47)"/>
<path d="M37.4178 -123.5C37.4178 -123.167 37.4178 -122.833 37.4178 -122.5C37.7983 -122.833 38.1788 -123 38.5593 -123C44.0468 -123 49.5342 -122.964 55.0217 -122.898C70.7594 -122.706 86.4971 -122.26 102.235 -121.67C110.403 -121.566 116.561 -113.114 114.638 -105.891C108.717 -78.608 102.545 -51.3673 96.7349 -24.0651L103 -29.355C97.3956 -29.5865 91.7913 -29.8032 86.1869 -30C69.1246 -30.5991 52.0623 -31.5043 35 -31.8545L43.7565 -24.3135C43.1836 -28.7518 42.573 -33.1844 41.9093 -37.6091C38.4343 -60.776 33.3718 -83.7049 26.7219 -106.396C26.0541 -108.308 25.8771 -110.463 26.3427 -112.643C27.2774 -117.327 31.4708 -121.941 37.4178 -123C31.5475 -124.221 24.3573 -121.199 20.8208 -114.969C19.1552 -112.116 18.2905 -108.65 18.4456 -105.154C18.7458 -81.511 20.6334 -58.1059 24.1085 -34.9389C24.7722 -30.5143 25.489 -26.0976 26.2435 -21.6865L27.5595 -13.9928L35 -14.1455C52.0623 -14.4957 69.1246 -15.4009 86.1869 -16C91.7913 -16.1968 97.3956 -16.4135 103 -16.645L108.619 -16.8771L109.265 -21.9349C112.803 -49.6234 115.98 -77.3734 119.407 -105.081C121.024 -115.347 111.902 -124.992 102.235 -124.33C86.4971 -123.74 70.7594 -123.294 55.0217 -123.102C49.5342 -123.036 44.0468 -123 38.5593 -123C38.1788 -123 37.7983 -123.167 37.4178 -123.5ZM37.4178 -122.5V-123.5V-123V-122.5Z" fill="#E03131" mask="url(#path-6-inside-1_2058_47)"/>
</pattern><linearGradient id="paint0_linear_2058_47" x1="109.699" y1="-183" x2="109.699" y2="-105.222" gradientUnits="userSpaceOnUse">
<stop offset="0.528903" stop-color="#FAB005"/>
<stop offset="1" stop-color="#FFE792"/>
</linearGradient>
<linearGradient id="paint1_linear_2058_47" x1="26.2491" y1="-173.381" x2="26.2491" y2="-91.9222" gradientUnits="userSpaceOnUse">
<stop offset="0.528903" stop-color="#FAB005"/>
<stop offset="1" stop-color="#FFE792"/>
</linearGradient>
<linearGradient id="paint2_linear_2058_47" x1="49.2605" y1="-210.576" x2="49.2605" y2="-104.988" gradientUnits="userSpaceOnUse">
<stop offset="0.528903" stop-color="#FAB005"/>
<stop offset="1" stop-color="#FFE792"/>
</linearGradient>
<linearGradient id="paint3_linear_2058_47" x1="78.6648" y1="-183" x2="78.6648" y2="-116.397" gradientUnits="userSpaceOnUse">
<stop offset="0.528903" stop-color="#FAB005"/>
<stop offset="1" stop-color="#FFE792"/>
</linearGradient>
<linearGradient id="paint4_linear_2058_47" x1="70" y1="-123" x2="70" y2="-23" gradientUnits="userSpaceOnUse">
<stop stop-color="#E03131"/>
<stop offset="0.9999" stop-color="#FA5252"/>
</linearGradient>
</defs>
</svg>
