<svg width="78" height="130" viewBox="0 0 78 130" fill="none" xmlns="http://www.w3.org/2000/svg">
<path d="M6 20.7397L74.4543 33.3345L8.41494 31.7568L6 20.7397Z" fill="#339C46"/>
<path d="M74.7153 32.3936L5.5 19L4 13.5L72.2565 20.5152L74.7153 32.3936Z" fill="#339C46"/>
<mask id="path-3-inside-1_2058_51" fill="white">
<path d="M1.69664 42.5543C0.819626 38.2186 4.13412 34.1665 8.55769 34.1665H71C74.866 34.1665 78 37.3005 78 41.1665V123C78 126.866 74.866 130 71 130H25.1105C21.7794 130 18.9098 127.653 18.2494 124.388L1.69664 42.5543Z"/>
</mask>
<path d="M1.69664 42.5543C0.819626 38.2186 4.13412 34.1665 8.55769 34.1665H71C74.866 34.1665 78 37.3005 78 41.1665V123C78 126.866 74.866 130 71 130H25.1105C21.7794 130 18.9098 127.653 18.2494 124.388L1.69664 42.5543Z" fill="url(#paint0_linear_2058_51)"/>
<path d="M8.55769 33.6665C8.55769 33.9998 8.55769 34.3332 8.55769 34.6665C13.8517 35.2043 19.1457 35.7165 24.4397 36.2033C39.9598 37.6302 55.4799 38.8378 71 39.8261C71.7246 40.0552 71.9183 40.832 71.6769 41.1665C70.1219 68.4443 69.2444 95.7221 69.0443 123C69.0001 121.948 69.9228 120.987 71 121C70.6374 121 70.2748 121 69.9122 121C54.9783 121 40.0444 121.252 25.1105 121.755C25.6981 121.862 26.0366 122.397 25.9791 122.824C19.6217 96.9022 12.4773 71.1395 4.54596 45.536C4.20023 44.4199 3.853 43.3042 3.50427 42.1887C2.3191 39.2931 4.5752 35.0647 8.55769 34.6665C8.55769 34.3332 8.55769 33.9998 8.55769 33.6665C4.05344 32.991 -0.880179 37.5523 -0.110993 42.92C0.0012199 44.0833 0.114929 45.2463 0.230135 46.409C2.873 73.0822 6.30285 99.5963 10.5197 125.951C11.6357 132.737 18.058 138.248 25.1105 138.244C40.0444 138.748 54.9783 139 69.9122 139C70.2748 139 70.6374 139 71 138.999C79.5345 139.194 87.1813 131.508 86.9557 123C86.7556 95.7221 85.8781 68.4443 84.3231 41.1665C84.263 34.0437 77.7327 28.0965 71 28.5069C55.4799 29.4952 39.9598 30.7028 24.4397 32.1298C19.1457 32.6165 13.8517 33.1287 8.55769 33.6665ZM8.55769 34.6665V33.6665V34.6665Z" fill="#42C159" mask="url(#path-3-inside-1_2058_51)"/>
<defs>
<linearGradient id="paint0_linear_2058_51" x1="39" y1="34.1665" x2="39" y2="130" gradientUnits="userSpaceOnUse">
<stop stop-color="#40C057"/>
<stop offset="0.298129" stop-color="#69DB7C"/>
</linearGradient>
</defs>
</svg>
